# Blender 4.1.1
# www.blender.org
mtllib Rail.mtl
o 立方体.003
v 0.745279 0.119485 -0.081629
v 0.745279 -0.119485 -0.081629
v 0.745279 0.119485 0.172273
v 0.745279 -0.119485 0.172273
v -0.744846 0.119485 -0.081629
v -0.744846 -0.119485 -0.081629
v -0.744846 0.119485 0.172273
v -0.744846 -0.119485 0.172273
v -1.156101 0.119485 -1.000000
v -1.156101 -0.119485 -1.000000
v -0.738573 0.119485 -1.000000
v -0.738573 -0.119485 -1.000000
v -1.156101 0.119485 1.000000
v -1.156101 -0.119485 1.000000
v -0.738573 0.119485 1.000000
v -0.738573 -0.119485 1.000000
v 0.756749 0.119485 -1.000000
v 0.756749 -0.119485 -1.000000
v 1.174278 0.119485 -1.000000
v 1.174278 -0.119485 -1.000000
v 0.756749 0.119485 1.000000
v 0.756749 -0.119485 1.000000
v 1.174278 0.119485 1.000000
v 1.174278 -0.119485 1.000000
v 0.745279 0.119485 -0.725247
v 0.745279 -0.119485 -0.725247
v 0.745279 0.119485 -0.471345
v 0.745279 -0.119485 -0.471345
v -0.744846 0.119485 -0.725247
v -0.744846 -0.119485 -0.725247
v -0.744846 0.119485 -0.471345
v -0.744846 -0.119485 -0.471345
v 0.745279 0.119485 0.541741
v 0.745279 -0.119485 0.541741
v 0.745279 0.119485 0.795643
v 0.745279 -0.119485 0.795643
v -0.744846 0.119485 0.541741
v -0.744846 -0.119485 0.541741
v -0.744846 0.119485 0.795642
v -0.744846 -0.119485 0.795642
vn -1.0000 -0.0000 -0.0000
vn -0.0000 -0.0000 -1.0000
vn 1.0000 -0.0000 -0.0000
vn -0.0000 -0.0000 1.0000
vn -0.0000 -1.0000 -0.0000
vn -0.0000 1.0000 -0.0000
vt 0.625000 0.000000
vt 0.375000 0.250000
vt 0.375000 0.000000
vt 0.625000 0.250000
vt 0.375000 0.500000
vt 0.625000 0.500000
vt 0.375000 0.750000
vt 0.625000 0.750000
vt 0.375000 1.000000
vt 0.125000 0.750000
vt 0.125000 0.500000
vt 0.875000 0.750000
vt 0.875000 0.500000
vt 0.625000 1.000000
s 0
usemtl マテリアル
f 2/1/1 3/2/1 1/3/1
f 4/4/2 7/5/2 3/2/2
f 8/6/3 5/7/3 7/5/3
f 6/8/4 1/9/4 5/7/4
f 7/5/5 1/10/5 3/11/5
f 8/6/6 2/12/6 6/8/6
f 10/1/4 11/2/4 9/3/4
f 12/4/1 15/5/1 11/2/1
f 16/6/2 13/7/2 15/5/2
f 14/8/3 9/9/3 13/7/3
f 15/5/5 9/10/5 11/11/5
f 12/13/6 14/8/6 16/6/6
f 18/1/4 19/2/4 17/3/4
f 20/4/1 23/5/1 19/2/1
f 24/6/2 21/7/2 23/5/2
f 22/8/3 17/9/3 21/7/3
f 23/5/5 17/10/5 19/11/5
f 20/13/6 22/8/6 24/6/6
f 26/1/1 27/2/1 25/3/1
f 28/4/2 31/5/2 27/2/2
f 32/6/3 29/7/3 31/5/3
f 30/8/4 25/9/4 29/7/4
f 31/5/5 25/10/5 27/11/5
f 32/6/6 26/12/6 30/8/6
f 34/1/1 35/2/1 33/3/1
f 36/4/2 39/5/2 35/2/2
f 40/6/3 37/7/3 39/5/3
f 38/8/4 33/9/4 37/7/4
f 39/5/5 33/10/5 35/11/5
f 36/13/6 38/8/6 40/6/6
f 2/1/1 4/4/1 3/2/1
f 4/4/2 8/6/2 7/5/2
f 8/6/3 6/8/3 5/7/3
f 6/8/4 2/14/4 1/9/4
f 7/5/5 5/7/5 1/10/5
f 8/6/6 4/13/6 2/12/6
f 10/1/4 12/4/4 11/2/4
f 12/4/1 16/6/1 15/5/1
f 16/6/2 14/8/2 13/7/2
f 14/8/3 10/14/3 9/9/3
f 15/5/5 13/7/5 9/10/5
f 12/13/6 10/12/6 14/8/6
f 18/1/4 20/4/4 19/2/4
f 20/4/1 24/6/1 23/5/1
f 24/6/2 22/8/2 21/7/2
f 22/8/3 18/14/3 17/9/3
f 23/5/5 21/7/5 17/10/5
f 20/13/6 18/12/6 22/8/6
f 26/1/1 28/4/1 27/2/1
f 28/4/2 32/6/2 31/5/2
f 32/6/3 30/8/3 29/7/3
f 30/8/4 26/14/4 25/9/4
f 31/5/5 29/7/5 25/10/5
f 32/6/6 28/13/6 26/12/6
f 34/1/1 36/4/1 35/2/1
f 36/4/2 40/6/2 39/5/2
f 40/6/3 38/8/3 37/7/3
f 38/8/4 34/14/4 33/9/4
f 39/5/5 37/7/5 33/10/5
f 36/13/6 34/12/6 38/8/6
