# Blender 4.1.1
# www.blender.org
mtllib sss.mtl
o Cube
v 0.125000 -2.000000 -0.125000
v 0.125000 -2.000000 0.125000
v 0.062500 2.000000 -0.062500
v 0.062500 2.000000 0.062500
v -0.125000 -2.000000 -0.125000
v -0.125000 -2.000000 0.125000
v -0.062500 2.000000 -0.062500
v -0.062500 2.000000 0.062500
v -0.125000 0.000000 0.125000
v 0.125000 0.000000 -0.125000
v -0.125000 0.000000 -0.125000
v 0.125000 0.000000 0.125000
v 0.125000 -2.000000 0.000000
v -0.062500 2.000000 0.000000
v 0.062500 2.000000 0.000000
v -0.125000 -2.000000 0.000000
v 0.125000 0.000000 0.000000
v -0.125000 0.000000 0.000000
v -0.125000 1.000000 0.125000
v 0.125000 1.000000 -0.125000
v -0.125000 1.000000 -0.125000
v 0.125000 1.000000 0.125000
v -0.125000 1.000000 0.000000
v 0.125000 1.000000 0.000000
v -0.125000 -1.000000 -0.125000
v 0.125000 -1.000000 0.125000
v -0.125000 -1.000000 0.125000
v 0.125000 -1.000000 -0.125000
v 0.125000 -1.000000 0.000000
v -0.125000 -1.000000 0.000000
v -0.062500 2.000000 -0.031250
v 0.125000 -2.000000 -0.062500
v 0.062500 2.000000 -0.031250
v -0.125000 -2.000000 -0.062500
v 0.125000 0.000000 -0.062500
v -0.125000 0.000000 -0.062500
v -0.125000 1.000000 -0.062500
v 0.125000 1.000000 -0.062500
v 0.125000 -1.000000 -0.062500
v -0.125000 -1.000000 -0.062500
v 0.125000 -2.000000 0.062500
v 0.062500 2.000000 0.031250
v -0.125000 -2.000000 0.062500
v 0.125000 0.000000 0.062500
v -0.125000 0.000000 0.062500
v -0.062500 2.000000 0.031250
v 0.125000 1.000000 0.062500
v -0.125000 1.000000 0.062500
v -0.125000 -1.000000 0.062500
v 0.125000 -1.000000 0.062500
v 0.000000 -2.000000 0.125000
v 0.000000 2.000000 -0.062500
v 0.000000 2.000000 0.062500
v 0.000000 -2.000000 -0.125000
v 0.000000 0.000000 0.125000
v 0.000000 0.000000 -0.125000
v 0.000000 -2.000000 0.000000
v 0.000000 2.000000 0.000000
v 0.000000 1.000000 0.125000
v 0.000000 1.000000 -0.125000
v 0.000000 -1.000000 -0.125000
v 0.000000 -1.000000 0.125000
v 0.000000 -2.000000 -0.062500
v 0.000000 2.000000 -0.031250
v 0.000000 2.000000 0.031250
v 0.000000 -2.000000 0.062500
v 0.031250 2.000000 0.062500
v 0.062500 -2.000000 -0.125000
v 0.062500 0.000000 -0.125000
v 0.062500 -2.000000 0.000000
v 0.062500 1.000000 -0.125000
v 0.062500 -1.000000 -0.125000
v 0.062500 -2.000000 -0.062500
v 0.062500 -2.000000 0.062500
v 0.062500 -2.000000 0.125000
v 0.031250 2.000000 -0.062500
v 0.062500 0.000000 0.125000
v 0.031250 2.000000 0.000000
v 0.062500 1.000000 0.125000
v 0.062500 -1.000000 0.125000
v 0.031250 2.000000 -0.031250
v 0.031250 2.000000 0.031250
v -0.062500 -2.000000 0.125000
v -0.031250 2.000000 -0.062500
v -0.062500 0.000000 0.125000
v -0.031250 2.000000 0.000000
v -0.062500 1.000000 0.125000
v -0.062500 -1.000000 0.125000
v -0.031250 2.000000 -0.031250
v -0.031250 2.000000 0.031250
v -0.031250 2.000000 0.062500
v -0.062500 -2.000000 -0.125000
v -0.062500 0.000000 -0.125000
v -0.062500 -2.000000 0.000000
v -0.062500 1.000000 -0.125000
v -0.062500 -1.000000 -0.125000
v -0.062500 -2.000000 -0.062500
v -0.062500 -2.000000 0.062500
v -0.062500 -2.000000 -0.425000
v 0.000000 -2.000000 -0.425000
v -0.062500 -1.000000 -0.175000
v 0.000000 -1.000000 -0.175000
v 0.062500 -2.000000 -0.425000
v 0.062500 -1.000000 -0.175000
v -0.425000 -2.000000 -0.062500
v -0.425000 -2.000000 0.000000
v -0.175000 -1.000000 0.000000
v -0.175000 -1.000000 -0.062500
v -0.425000 -2.000000 0.062500
v -0.175000 -1.000000 0.062500
v 0.425000 -2.000000 -0.062500
v 0.425000 -2.000000 0.000000
v 0.175000 -1.000000 0.000000
v 0.175000 -1.000000 -0.062500
v 0.425000 -2.000000 0.062500
v 0.175000 -1.000000 0.062500
v 0.062500 -2.000000 0.425000
v 0.000000 -2.000000 0.425000
v 0.062500 -1.000000 0.175000
v 0.000000 -1.000000 0.175000
v -0.062500 -2.000000 0.425000
v -0.062500 -1.000000 0.175000
vn -0.0000 0.0624 -0.9981
vn -0.0000 1.0000 -0.0000
vn -1.0000 -0.0000 -0.0000
vn -0.0000 0.0624 0.9981
vn 0.9981 0.0624 -0.0000
vn -0.0000 -1.0000 -0.0000
vn 1.0000 -0.0000 -0.0000
vn -0.0000 -0.0000 1.0000
vn -0.0000 -0.0000 -1.0000
vn -0.9981 0.0624 -0.0000
vn -0.0000 0.2425 -0.9701
vn -0.9701 0.2425 -0.0000
vn 0.9701 0.2425 -0.0000
vn -0.0000 0.2425 0.9701
vt 0.268707 0.854365
vt 0.285937 0.871595
vt 0.268707 0.871595
vt 0.217018 0.923284
vt 0.199789 0.940514
vt 0.199789 0.923284
vt 0.801624 0.156890
vt 0.771391 0.187124
vt 0.771391 0.156890
vt 0.130870 0.854365
vt 0.148100 0.871595
vt 0.130870 0.871595
vt 0.199789 0.854365
vt 0.217018 0.871595
vt 0.199789 0.871595
vt 0.801624 0.277825
vt 0.771391 0.308059
vt 0.771391 0.277825
vt 0.801624 0.338293
vt 0.771391 0.368527
vt 0.771391 0.338293
vt 0.680689 0.338293
vt 0.650455 0.368527
vt 0.650455 0.338293
vt 0.801624 0.096422
vt 0.771391 0.126656
vt 0.771391 0.096422
vt 0.922559 0.338293
vt 0.892326 0.368527
vt 0.892326 0.338293
vt 0.741157 0.096422
vt 0.710923 0.126656
vt 0.710923 0.096422
vt 0.741157 0.338293
vt 0.710923 0.368527
vt 0.710923 0.338293
vt 0.741157 0.277825
vt 0.710923 0.308059
vt 0.710923 0.277825
vt 0.182559 0.854365
vt 0.165329 0.871595
vt 0.165329 0.854365
vt 0.785451 0.715488
vt 0.755217 0.715488
vt 0.182559 0.923284
vt 0.165329 0.940514
vt 0.165329 0.923284
vt 0.741157 0.368527
vt 0.710923 0.398760
vt 0.165329 0.664839
vt 0.182559 0.682068
vt 0.165329 0.682068
vt 0.217018 0.664839
vt 0.199789 0.682068
vt 0.199789 0.664839
vt 0.801624 0.368527
vt 0.771391 0.398760
vt 0.680689 0.368527
vt 0.650455 0.398760
vt 0.922559 0.368527
vt 0.892326 0.398760
vt 0.741157 0.126656
vt 0.710923 0.156890
vt 0.815685 0.866657
vt 0.785451 0.866657
vt 0.922559 0.308059
vt 0.892326 0.308059
vt 0.680689 0.308059
vt 0.650455 0.308059
vt 0.801624 0.308059
vt 0.801624 0.126656
vt 0.741157 0.156890
vt 0.755217 0.866657
vt 0.755217 0.896890
vt 0.741157 0.398760
vt 0.182559 0.664839
vt 0.741157 0.308059
vt 0.182559 0.871595
vt 0.815685 0.715488
vt 0.182559 0.940514
vt 0.680689 0.156890
vt 0.680689 0.126656
vt 0.148100 0.664839
vt 0.148100 0.682068
vt 0.680689 0.398760
vt 0.148100 0.940514
vt 0.148100 0.923284
vt 0.680689 0.187124
vt 0.148100 0.854365
vt 0.680689 0.277825
vt 0.680689 0.096422
vt 0.710923 0.217358
vt 0.680689 0.247591
vt 0.680689 0.217358
vt 0.165329 0.888825
vt 0.148100 0.906054
vt 0.148100 0.888825
vt 0.199789 0.888825
vt 0.182559 0.906054
vt 0.182559 0.888825
vt 0.161116 0.212436
vt 0.130883 0.242670
vt 0.130883 0.212436
vt 0.664516 0.896890
vt 0.694749 0.896890
vt 0.906386 0.896890
vt 0.936620 0.896890
vt 0.862092 0.368527
vt 0.831858 0.398760
vt 0.831858 0.368527
vt 0.620221 0.368527
vt 0.589988 0.398760
vt 0.589988 0.368527
vt 0.165329 0.906054
vt 0.100649 0.242670
vt 0.100649 0.212436
vt 0.862092 0.338293
vt 0.831858 0.338293
vt 0.620221 0.338293
vt 0.589988 0.338293
vt 0.801624 0.217358
vt 0.771391 0.247591
vt 0.771391 0.217358
vt 0.113640 0.854365
vt 0.096411 0.871595
vt 0.096411 0.854365
vt 0.217018 0.888825
vt 0.199789 0.906054
vt 0.251478 0.854365
vt 0.234248 0.871595
vt 0.234248 0.854365
vt 0.217018 0.854365
vt 0.801624 0.398760
vt 0.831858 0.308059
vt 0.710923 0.247591
vt 0.161116 0.242670
vt 0.130883 0.272904
vt 0.724983 0.836423
vt 0.724983 0.806189
vt 0.620221 0.398760
vt 0.100649 0.272904
vt 0.801624 0.247591
vt 0.113640 0.871595
vt 0.079181 0.871595
vt 0.079181 0.854365
vt 0.801624 0.187124
vt 0.559754 0.368527
vt 0.559754 0.338293
vt 0.741157 0.187124
vt 0.710923 0.187124
vt 0.559754 0.398760
vt 0.589988 0.308059
vt 0.559754 0.308059
vt 0.741157 0.217358
vt 0.845918 0.775955
vt 0.845918 0.806189
vt 0.862092 0.398760
vt 0.217018 0.906054
vt 0.251478 0.871595
vt 0.906386 0.866657
vt 0.876152 0.896890
vt 0.876152 0.866657
vt 0.936620 0.866657
vt 0.845918 0.836423
vt 0.755217 0.745721
vt 0.785451 0.745721
vt 0.815685 0.745721
vt 0.785451 0.896890
vt 0.815685 0.896890
vt 0.664516 0.866657
vt 0.634282 0.896890
vt 0.634282 0.866657
vt 0.694749 0.866657
vt 0.724983 0.775955
vt 0.285937 0.854365
vt 0.217018 0.940514
vt 0.217018 0.682068
vt 0.922559 0.398760
vt 0.161116 0.272904
s 0
usemtl Material.001
f 95/1/1 7/2/1 84/3/1
f 84/4/2 31/5/2 89/6/2
f 25/7/3 34/8/3 40/9/3
f 79/10/4 4/11/4 67/12/4
f 38/13/5 3/14/5 33/15/5
f 68/16/6 32/17/6 73/18/6
f 28/19/7 35/20/7 39/21/7
f 26/22/8 77/23/8 80/24/8
f 21/25/3 36/26/3 37/27/3
f 25/28/9 93/29/9 96/30/9
f 23/31/3 45/32/3 48/33/3
f 29/34/7 44/35/7 50/36/7
f 70/37/6 41/38/6 74/39/6
f 24/40/5 42/41/5 47/42/5
f 30/43/2 110/44/2 49/44/2
f 86/45/2 46/46/2 90/47/2
f 17/48/7 47/49/7 44/35/7
f 46/50/10 23/51/10 48/52/10
f 7/53/10 37/54/10 31/55/10
f 10/56/7 38/57/7 35/20/7
f 12/58/8 79/59/8 77/23/8
f 11/60/9 95/61/9 93/29/9
f 18/62/3 49/63/3 45/32/3
f 32/64/6 112/65/6 13/65/6
f 5/66/9 96/30/9 92/67/9
f 2/68/8 80/24/8 75/69/8
f 1/70/7 39/21/7 32/17/7
f 11/71/3 40/9/3 36/26/3
f 36/26/3 30/72/3 18/62/3
f 41/73/8 116/74/8 50/74/8
f 35/20/7 24/75/7 17/48/7
f 31/55/10 23/51/10 14/76/10
f 37/27/3 18/62/3 23/31/3
f 39/21/7 17/48/7 29/34/7
f 73/18/6 13/77/6 70/37/6
f 24/40/5 33/15/5 15/78/5
f 40/79/2 107/43/2 30/43/2
f 89/6/2 14/80/2 86/45/2
f 41/38/7 26/22/7 2/68/7
f 45/32/3 27/81/3 9/82/3
f 8/83/10 48/52/10 19/84/10
f 44/35/7 22/85/7 12/58/7
f 90/47/2 8/86/2 91/87/2
f 49/63/3 6/88/3 27/81/3
f 47/42/5 4/11/5 22/89/5
f 74/39/6 2/68/6 75/90/6
f 50/36/7 12/58/7 26/22/7
f 48/33/3 9/82/3 19/91/3
f 98/92/6 51/93/6 83/94/6
f 82/95/2 53/96/2 67/97/2
f 81/98/2 58/99/2 78/100/2
f 97/101/6 57/102/6 94/103/6
f 62/104/2 119/105/2 80/105/2
f 61/106/2 101/107/2 96/107/2
f 56/108/9 71/109/9 69/110/9
f 55/111/8 87/112/8 85/113/8
f 78/100/2 65/114/2 82/95/2
f 94/103/6 66/115/6 98/116/6
f 61/117/9 69/110/9 72/118/9
f 62/119/8 85/113/8 88/120/8
f 92/121/6 63/122/6 97/123/6
f 59/124/4 91/125/4 87/126/4
f 76/127/2 64/128/2 81/98/2
f 60/129/1 76/130/1 71/131/1
f 71/131/1 3/14/1 20/132/1
f 3/14/2 81/98/2 33/15/2
f 72/118/9 10/56/9 28/19/9
f 15/78/2 82/95/2 42/41/2
f 69/110/9 20/133/9 10/56/9
f 68/134/9 28/19/9 1/70/9
f 33/15/2 78/100/2 15/78/2
f 42/41/2 67/97/2 4/11/2
f 66/135/6 75/90/6 51/93/6
f 63/136/6 70/137/6 57/102/6
f 75/138/6 118/139/6 51/139/6
f 77/23/8 59/140/8 55/111/8
f 57/102/6 74/141/6 66/115/6
f 80/24/8 55/111/8 62/119/8
f 54/142/6 73/18/6 63/122/6
f 59/124/4 67/12/4 53/143/4
f 87/126/4 8/144/4 19/145/4
f 5/146/6 97/123/6 34/8/6
f 88/120/8 9/147/8 27/148/8
f 16/149/6 98/92/6 43/150/6
f 85/113/8 19/151/8 9/147/8
f 83/152/8 27/148/8 6/153/8
f 34/8/6 94/154/6 16/149/6
f 43/150/6 83/94/6 6/88/6
f 65/114/2 91/87/2 53/96/2
f 64/128/2 86/45/2 58/99/2
f 92/155/6 100/156/6 54/156/6
f 93/29/9 60/157/9 56/108/9
f 58/99/2 90/47/2 65/114/2
f 96/30/9 56/108/9 61/117/9
f 52/158/2 89/6/2 64/128/2
f 60/129/1 84/3/1 52/159/1
f 100/160/11 104/161/11 103/162/11
f 99/163/11 102/106/11 100/160/11
f 72/161/2 102/106/2 61/106/2
f 92/163/3 101/107/3 99/163/3
f 54/156/6 103/164/6 68/164/6
f 68/162/7 104/161/7 72/161/7
f 107/43/12 109/165/12 110/44/12
f 108/79/12 106/166/12 107/43/12
f 43/165/8 110/44/8 109/165/8
f 16/166/6 105/167/6 34/167/6
f 43/165/6 106/166/6 16/166/6
f 34/167/9 108/79/9 40/79/9
f 112/65/13 116/74/13 115/73/13
f 111/64/13 113/168/13 112/65/13
f 32/64/9 114/169/9 111/64/9
f 29/168/2 114/169/2 39/169/2
f 13/65/6 115/73/6 41/73/6
f 50/74/2 113/168/2 29/168/2
f 118/170/14 122/171/14 121/172/14
f 117/173/14 120/104/14 118/170/14
f 51/139/6 121/174/6 83/174/6
f 88/171/2 120/104/2 62/104/2
f 75/173/7 119/105/7 117/173/7
f 83/172/3 122/171/3 88/171/3
f 95/1/1 21/175/1 7/2/1
f 84/4/2 7/176/2 31/5/2
f 25/7/3 5/146/3 34/8/3
f 79/10/4 22/89/4 4/11/4
f 38/13/5 20/132/5 3/14/5
f 68/16/6 1/70/6 32/17/6
f 28/19/7 10/56/7 35/20/7
f 26/22/8 12/58/8 77/23/8
f 21/25/3 11/71/3 36/26/3
f 25/28/9 11/60/9 93/29/9
f 23/31/3 18/62/3 45/32/3
f 29/34/7 17/48/7 44/35/7
f 70/37/6 13/77/6 41/38/6
f 24/40/5 15/78/5 42/41/5
f 30/43/2 107/43/2 110/44/2
f 86/45/2 14/80/2 46/46/2
f 17/48/7 24/75/7 47/49/7
f 46/50/10 14/76/10 23/51/10
f 7/53/10 21/177/10 37/54/10
f 10/56/7 20/133/7 38/57/7
f 12/58/8 22/85/8 79/59/8
f 11/60/9 21/178/9 95/61/9
f 18/62/3 30/72/3 49/63/3
f 32/64/6 111/64/6 112/65/6
f 5/66/9 25/28/9 96/30/9
f 2/68/8 26/22/8 80/24/8
f 1/70/7 28/19/7 39/21/7
f 11/71/3 25/7/3 40/9/3
f 36/26/3 40/9/3 30/72/3
f 41/73/8 115/73/8 116/74/8
f 35/20/7 38/57/7 24/75/7
f 31/55/10 37/54/10 23/51/10
f 37/27/3 36/26/3 18/62/3
f 39/21/7 35/20/7 17/48/7
f 73/18/6 32/17/6 13/77/6
f 24/40/5 38/13/5 33/15/5
f 40/79/2 108/79/2 107/43/2
f 89/6/2 31/5/2 14/80/2
f 41/38/7 50/36/7 26/22/7
f 45/32/3 49/63/3 27/81/3
f 8/83/10 46/50/10 48/52/10
f 44/35/7 47/49/7 22/85/7
f 90/47/2 46/46/2 8/86/2
f 49/63/3 43/150/3 6/88/3
f 47/42/5 42/41/5 4/11/5
f 74/39/6 41/38/6 2/68/6
f 50/36/7 44/35/7 12/58/7
f 48/33/3 45/32/3 9/82/3
f 98/92/6 66/135/6 51/93/6
f 82/95/2 65/114/2 53/96/2
f 81/98/2 64/128/2 58/99/2
f 97/101/6 63/136/6 57/102/6
f 62/104/2 120/104/2 119/105/2
f 61/106/2 102/106/2 101/107/2
f 56/108/9 60/157/9 71/109/9
f 55/111/8 59/140/8 87/112/8
f 78/100/2 58/99/2 65/114/2
f 94/103/6 57/102/6 66/115/6
f 61/117/9 56/108/9 69/110/9
f 62/119/8 55/111/8 85/113/8
f 92/121/6 54/142/6 63/122/6
f 59/124/4 53/143/4 91/125/4
f 76/127/2 52/158/2 64/128/2
f 60/129/1 52/159/1 76/130/1
f 71/131/1 76/130/1 3/14/1
f 3/14/2 76/127/2 81/98/2
f 72/118/9 69/110/9 10/56/9
f 15/78/2 78/100/2 82/95/2
f 69/110/9 71/109/9 20/133/9
f 68/134/9 72/118/9 28/19/9
f 33/15/2 81/98/2 78/100/2
f 42/41/2 82/95/2 67/97/2
f 66/135/6 74/39/6 75/90/6
f 63/136/6 73/179/6 70/137/6
f 75/138/6 117/138/6 118/139/6
f 77/23/8 79/59/8 59/140/8
f 57/102/6 70/137/6 74/141/6
f 80/24/8 77/23/8 55/111/8
f 54/142/6 68/16/6 73/18/6
f 59/124/4 79/10/4 67/12/4
f 87/126/4 91/125/4 8/144/4
f 5/146/6 92/121/6 97/123/6
f 88/120/8 85/113/8 9/147/8
f 16/149/6 94/154/6 98/92/6
f 85/113/8 87/112/8 19/151/8
f 83/152/8 88/120/8 27/148/8
f 34/8/6 97/123/6 94/154/6
f 43/150/6 98/92/6 83/94/6
f 65/114/2 90/47/2 91/87/2
f 64/128/2 89/6/2 86/45/2
f 92/155/6 99/155/6 100/156/6
f 93/29/9 95/61/9 60/157/9
f 58/99/2 86/45/2 90/47/2
f 96/30/9 93/29/9 56/108/9
f 52/158/2 84/4/2 89/6/2
f 60/129/1 95/1/1 84/3/1
f 100/160/11 102/106/11 104/161/11
f 99/163/11 101/107/11 102/106/11
f 72/161/2 104/161/2 102/106/2
f 92/163/3 96/107/3 101/107/3
f 54/156/6 100/156/6 103/164/6
f 68/162/7 103/162/7 104/161/7
f 107/43/12 106/166/12 109/165/12
f 108/79/12 105/167/12 106/166/12
f 43/165/8 49/44/8 110/44/8
f 16/166/6 106/166/6 105/167/6
f 43/165/6 109/165/6 106/166/6
f 34/167/9 105/167/9 108/79/9
f 112/65/13 113/168/13 116/74/13
f 111/64/13 114/169/13 113/168/13
f 32/64/9 39/169/9 114/169/9
f 29/168/2 113/168/2 114/169/2
f 13/65/6 112/65/6 115/73/6
f 50/74/2 116/74/2 113/168/2
f 118/170/14 120/104/14 122/171/14
f 117/173/14 119/105/14 120/104/14
f 51/139/6 118/139/6 121/174/6
f 88/171/2 122/171/2 120/104/2
f 75/173/7 80/105/7 119/105/7
f 83/172/3 121/172/3 122/171/3
