# Blender 4.1.1
# www.blender.org
mtllib NormalEnemy.mtl
o 立方体.003
v -0.592412 0.584716 0.136325
v -0.592412 2.584716 0.136325
v -0.592412 0.584716 -0.136325
v -0.592412 2.584716 -0.136325
v -0.320374 0.584716 0.136325
v -0.320374 2.584716 0.136325
v -0.320374 0.584716 -0.136325
v -0.320374 2.584716 -0.136325
v -1.000000 -1.000000 1.000000
v -1.000000 1.000000 1.000000
v -1.000000 -1.000000 -1.000000
v -1.000000 1.000000 -1.000000
v 1.000000 -1.000000 1.000000
v 1.000000 1.000000 1.000000
v 1.000000 -1.000000 -1.000000
v 1.000000 1.000000 -1.000000
vn -0.5773 -0.5774 0.5773
vn -0.5774 0.5774 0.5774
vn -0.5774 -0.5774 -0.5774
vn -0.5773 0.5774 -0.5773
vn 0.5774 -0.5774 0.5774
vn 0.5773 0.5774 0.5773
vn 0.5773 -0.5774 -0.5773
vn 0.5774 0.5774 -0.5774
vn -0.5773 -0.5774 0.5774
vn -0.5774 0.5773 0.5773
vn -0.5774 -0.5773 -0.5773
vn -0.5773 0.5774 -0.5774
vn 0.5774 -0.5773 0.5773
vn 0.5773 0.5774 0.5774
vn 0.5773 -0.5774 -0.5774
vn 0.5774 0.5773 -0.5773
vt 0.625000 0.000000
vt 0.375000 0.250000
vt 0.375000 0.000000
vt 0.625000 0.250000
vt 0.375000 0.500000
vt 0.625000 0.500000
vt 0.375000 0.750000
vt 0.625000 0.750000
vt 0.375000 1.000000
vt 0.125000 0.750000
vt 0.125000 0.500000
vt 0.875000 0.500000
vt 0.625000 1.000000
vt 0.875000 0.750000
s 1
usemtl マテリアル.004
f 2/1/2 3/2/3 1/3/1
f 4/4/4 7/5/7 3/2/3
f 8/6/8 5/7/5 7/5/7
f 6/8/6 1/9/1 5/7/5
f 7/5/7 1/10/1 3/11/3
f 4/12/4 6/8/6 8/6/8
f 10/1/10 11/2/11 9/3/9
f 12/4/12 15/5/15 11/2/11
f 16/6/16 13/7/13 15/5/15
f 14/8/14 9/9/9 13/7/13
f 15/5/15 9/10/9 11/11/11
f 12/12/12 14/8/14 16/6/16
f 2/1/2 4/4/4 3/2/3
f 4/4/4 8/6/8 7/5/7
f 8/6/8 6/8/6 5/7/5
f 6/8/6 2/13/2 1/9/1
f 7/5/7 5/7/5 1/10/1
f 4/12/4 2/14/2 6/8/6
f 10/1/10 12/4/12 11/2/11
f 12/4/12 16/6/16 15/5/15
f 16/6/16 14/8/14 13/7/13
f 14/8/14 10/13/10 9/9/9
f 15/5/15 13/7/13 9/10/9
f 12/12/12 10/14/10 14/8/14
