# Blender 4.1.1
# www.blender.org
mtllib AllyNPC.mtl
o 立方体.001
v -1.227974 -0.565596 1.134135
v -1.561171 -0.565596 -2.674911
v 1.227974 -0.565596 1.134135
v 1.561171 -0.565596 -2.674911
v 0.000000 -0.565596 -2.674911
v 0.000000 0.399532 -3.099642
v 0.000000 -0.565596 3.564922
v 0.000000 0.727539 1.614681
v -1.318825 0.000000 2.152731
v -2.152731 0.000000 -3.099642
v 2.152731 0.000000 -3.099642
v 1.318825 0.000000 2.152731
v 0.000000 0.007734 3.564922
v 0.000000 -0.565596 -3.569703
v 0.000000 0.316295 2.663708
v 0.780585 -0.565596 -3.569703
v -2.152731 -0.282798 -3.099642
v 2.152731 -0.282798 -3.099642
v 1.318825 -0.282798 2.152731
v 0.000000 -0.282798 4.483907
v 1.561171 -0.565596 -4.259372
v -1.318825 -0.282798 2.152731
v 1.076366 0.565596 -3.099642
v 0.780585 -0.565596 1.134135
v 0.780585 -0.565596 -2.674911
v 0.817741 0.354059 1.592854
v 1.076366 0.000000 2.152731
v 2.152731 -0.282798 -5.284490
v 0.817741 0.282798 1.908992
v 1.076366 0.565596 -4.333490
v 1.076366 -0.282798 2.152731
v -0.780585 -0.565596 -2.674911
v -0.817741 0.354059 1.592854
v -1.076366 0.565596 -3.099642
v -0.780585 -0.565596 1.134135
v -0.780585 -0.565596 -3.569703
v -1.076366 0.000000 2.152731
v -1.561171 -0.565596 -4.259372
v -0.817741 0.282798 1.908992
v -1.076366 -0.282798 2.152731
v -2.152731 -0.282798 -5.284490
v -1.561171 -0.565596 -0.427036
v 1.561171 -0.565596 -0.427036
v 0.000000 0.830470 0.000000
v 0.000000 -0.565596 -0.427036
v 1.676674 0.000000 0.000000
v -1.676674 0.000000 0.000000
v -1.676674 -0.282798 0.000000
v 1.676674 -0.282798 0.000000
v 0.838749 0.354059 0.000000
v 0.780585 -0.565596 -0.427036
v -0.780585 -0.565596 -0.427036
v -0.838749 0.354059 0.000000
v -1.561171 -0.565596 0.353550
v 0.000000 0.872078 1.076366
v 0.000000 -0.565596 0.353550
v 1.676674 0.000000 1.076366
v 1.676674 -0.282798 1.076366
v 0.838749 0.354059 1.076366
v 0.780585 -0.565596 0.353550
v -0.780585 -0.565596 0.353550
v -0.838749 0.354059 1.076366
v 1.561171 -0.565596 0.353550
v -1.676674 0.000000 1.076366
v -1.676674 -0.282798 1.076366
v 4.311199 -0.565596 -1.207621
v -5.944803 0.000000 -1.076366
v -5.944803 -0.282798 -1.076366
v -4.311199 -0.565596 -1.207621
v 0.000000 0.721109 -1.076366
v 0.000000 -0.565596 -1.207621
v 5.944803 0.000000 -1.076366
v 5.944803 -0.282798 -1.076366
v 0.855651 0.258650 -1.076366
v 0.780585 -0.565596 -1.207621
v -0.780585 -0.565596 -1.207621
v -0.855651 0.258650 -1.076366
v 3.843965 -0.565596 -2.029533
v -5.300523 0.000000 -2.209717
v -5.300523 -0.282798 -2.209717
v -3.843965 -0.565596 -2.029533
v 0.000000 0.618452 -1.614549
v 0.000000 -0.565596 -1.597914
v 5.300523 0.000000 -2.209717
v 5.300523 -0.282798 -2.209717
v 0.855651 0.258650 -1.614549
v 0.780585 -0.565596 -1.597914
v -0.780585 -0.565596 -1.597914
v -0.855651 0.258650 -1.614549
v -2.989962 -0.282798 -4.177346
v -2.168334 -0.565596 -3.456467
v -0.780585 -0.565596 -3.456467
v 1.076366 0.565596 -4.177346
v 2.989962 -0.282798 -4.177346
v 2.168334 -0.565596 -3.456467
v 0.780585 -0.565596 -3.456467
v 0.000000 -0.565596 -3.456467
v -1.076366 0.565596 -4.177346
v 0.000000 0.268989 -4.177346
v -2.989962 0.000000 -4.177346
v 2.989962 0.000000 -4.177346
v -1.076366 0.565596 -4.333490
v 0.000000 0.268989 -4.333490
v 0.000000 -0.282798 -4.333490
v -2.152731 0.000000 -5.284490
v 2.152731 0.000000 -5.284490
v 0.000000 0.152256 -4.333490
v 0.000000 0.000000 -4.333490
v -1.076366 0.000000 -4.333490
v 1.076366 0.000000 -4.333490
v -1.076366 0.282798 -4.333490
v 1.076366 0.282798 -4.333490
v 1.076366 -0.282798 -4.333490
v -1.076366 -0.282798 -4.333490
vn -0.2639 0.9576 -0.1160
vn -0.0000 -1.0000 -0.0000
vn 0.4158 0.9093 0.0169
vn 0.3511 0.8717 0.3417
vn 0.5467 0.7984 0.2524
vn -0.0000 -0.0000 1.0000
vn 0.9489 -0.0000 0.3155
vn -0.2721 -0.0000 -0.9623
vn -0.6377 -0.5899 0.4954
vn 0.3964 0.8686 0.2974
vn -0.0581 0.9983 -0.0000
vn -0.1210 -0.8957 -0.4279
vn 0.7897 -0.0000 0.6135
vn 0.5399 -0.8096 0.2305
vn -0.0000 -0.9636 0.2675
vn 0.4098 -0.9026 0.1316
vn -0.0000 1.0000 -0.0000
vn -0.7897 -0.0000 0.6135
vn 0.6377 -0.5899 0.4954
vn 0.1525 0.9883 -0.0000
vn -0.4098 -0.9026 0.1316
vn -0.3964 0.8686 0.2974
vn 0.4652 0.8852 -0.0000
vn -0.5467 0.7984 0.2524
vn -0.4652 0.8852 -0.0000
vn -0.5123 0.8294 0.2227
vn -0.3511 0.8717 0.3417
vn -0.4920 0.8662 -0.0880
vn 0.1471 -0.8425 0.5182
vn -0.9258 -0.3781 -0.0000
vn -1.0000 -0.0000 -0.0000
vn 0.2445 -0.0000 0.9696
vn 0.4743 0.8776 -0.0703
vn -0.0498 0.9791 0.1973
vn -0.9489 -0.0000 0.3155
vn -0.5399 -0.8096 0.2305
vn -0.5252 0.8504 -0.0329
vn 0.9258 -0.3781 -0.0000
vn 1.0000 -0.0000 -0.0000
vn 0.4939 0.8695 -0.0000
vn -0.3881 0.9185 -0.0753
vn 0.3876 0.9218 -0.0000
vn 0.8693 -0.0000 -0.4942
vn 0.1776 -0.9789 -0.1009
vn -0.4689 0.8676 -0.1655
vn -0.1471 -0.8425 0.5182
vn 0.0507 0.9983 -0.0288
vn -0.2445 -0.0000 0.9696
vn 0.0498 0.9791 0.1973
vn -0.3841 0.9134 -0.1346
vn 0.1210 -0.8957 -0.4279
vn 0.2721 -0.0000 -0.9623
vn -0.1500 0.9724 0.1787
vn 0.3881 0.9185 -0.0753
vn -0.1776 -0.9789 -0.1009
vn 0.3892 0.9211 -0.0000
vn -0.8693 -0.0000 -0.4942
vn -0.3892 0.9211 -0.0000
vn -0.7976 -0.0000 -0.6032
vn 0.6621 -0.0000 -0.7494
vn -0.6621 -0.0000 -0.7494
vn -0.2003 -0.9680 -0.1515
vn -0.2657 0.9641 -0.0000
vn 0.2657 0.9641 -0.0000
vn 0.7976 -0.0000 -0.6032
vn 0.2003 -0.9680 -0.1515
vn 0.4510 0.8584 0.2444
vn -0.0000 -0.0000 -1.0000
vn -0.4510 0.8584 0.2444
vn -0.3976 -0.7996 -0.4500
vn -0.0000 -0.9378 -0.3472
vn 0.3976 -0.7996 -0.4500
vn -0.0391 0.9896 -0.1382
vn 0.0391 0.9896 -0.1382
vn -0.0000 0.6529 0.7575
vn 0.4055 0.8917 0.2010
vn -0.4055 0.8917 0.2010
vn 0.3892 0.9210 0.0158
vn -0.3892 0.9210 0.0158
vn -0.1525 0.9883 -0.0000
vn 0.5123 0.8294 0.2227
vn 0.4114 0.8891 0.2004
vn 0.7953 -0.0000 0.6062
vn 0.4394 0.7823 0.4414
vn -0.0507 0.9983 -0.0288
vn 0.5410 -0.8216 0.1799
vn 0.5373 -0.8061 0.2481
vn 0.2639 0.9576 -0.1160
vn -0.5373 -0.8061 0.2481
vn -0.4394 0.7823 0.4414
vn -0.7953 -0.0000 0.6062
vn -0.4158 0.9093 0.0169
vn -0.4114 0.8891 0.2004
vn -0.4743 0.8776 -0.0703
vn 0.1157 -0.8810 0.4587
vn 0.4920 0.8662 -0.0880
vn -0.5410 -0.8216 0.1799
vn -0.4939 0.8695 -0.0000
vn 0.5252 0.8504 -0.0329
vn 0.4689 0.8676 -0.1655
vn -0.3876 0.9218 -0.0000
vn -0.1157 -0.8810 0.4587
vn 0.0581 0.9983 -0.0000
vn 0.1500 0.9724 0.1787
vn 0.3841 0.9134 -0.1346
vn 0.4528 0.8788 0.1505
vn -0.4528 0.8788 0.1505
vt 0.304844 0.743618
vt 0.277287 0.743618
vt 0.754211 0.826288
vt 0.781768 0.853844
vt 0.754211 0.853844
vt 0.127179 0.073288
vt 0.154736 0.100845
vt 0.127179 0.100845
vt 0.084390 0.826288
vt 0.056833 0.853844
vt 0.056833 0.826288
vt 0.072066 0.128402
vt 0.099622 0.155958
vt 0.072066 0.155958
vt 0.654315 0.239157
vt 0.681872 0.239157
vt 0.167060 0.881401
vt 0.194617 0.908958
vt 0.167060 0.908958
vt 0.836881 0.936515
vt 0.809324 0.964071
vt 0.809324 0.936515
vt 0.836881 0.826288
vt 0.809324 0.853844
vt 0.809324 0.826288
vt 0.819656 0.115152
vt 0.792099 0.128930
vt 0.792099 0.115152
vt 0.764542 0.128930
vt 0.194617 0.881401
vt 0.222174 0.908958
vt 0.056833 0.743618
vt 0.084390 0.743618
vt 0.957439 0.266714
vt 0.957439 0.252935
vt 0.764542 0.115152
vt 0.792099 0.239157
vt 0.819656 0.239157
vt 0.781768 0.826288
vt 0.781768 0.964071
vt 0.781768 0.936515
vt 0.139503 0.908958
vt 0.139503 0.881401
vt 0.819656 0.128930
vt 0.809324 0.881401
vt 0.781768 0.881401
vt 0.764542 0.239157
vt 0.736985 0.239157
vt 0.836881 0.853844
vt 0.111947 0.853844
vt 0.084390 0.853844
vt 0.332400 0.743618
vt 0.167060 0.936515
vt 0.139503 0.936515
vt 0.194617 0.936515
vt 0.194617 0.743618
vt 0.111947 0.743618
vt 0.194617 0.633391
vt 0.249730 0.660947
vt 0.699098 0.826288
vt 0.671541 0.853844
vt 0.671541 0.826288
vt 0.182293 0.073288
vt 0.154736 0.073288
vt 0.072066 0.183515
vt 0.304844 0.771174
vt 0.332400 0.798731
vt 0.304844 0.798731
vt 0.681872 0.266714
vt 0.654315 0.294270
vt 0.654315 0.266714
vt 0.111947 0.771174
vt 0.084390 0.798731
vt 0.084390 0.771174
vt 0.764542 0.266714
vt 0.792099 0.294270
vt 0.764542 0.294270
vt 0.781768 0.550720
vt 0.809324 0.578277
vt 0.781768 0.578277
vt 0.836881 0.550720
vt 0.809324 0.550720
vt 0.819656 0.266714
vt 0.792099 0.266714
vt 0.056833 0.798731
vt 0.056833 0.771174
vt 0.277287 0.798731
vt 0.277287 0.771174
vt 0.819656 0.073817
vt 0.819656 0.101373
vt 0.736985 0.266714
vt 0.736985 0.294270
vt 0.836881 0.523164
vt 0.809324 0.523164
vt 0.781768 0.523164
vt 0.332400 0.826288
vt 0.304844 0.826288
vt 0.699098 0.798731
vt 0.671541 0.798731
vt 0.111947 0.798731
vt 0.809324 0.798731
vt 0.781768 0.798731
vt 0.836881 0.798731
vt 0.277287 0.826288
vt 0.754211 0.798731
vt 0.764542 0.252935
vt 0.736985 0.252935
vt 0.974665 0.798731
vt 0.974665 0.771174
vt 0.836881 0.578277
vt 0.304844 0.757396
vt 0.277287 0.757396
vt 0.084390 0.757396
vt 0.056833 0.757396
vt 0.819656 0.252935
vt 0.792099 0.252935
vt 0.111947 0.757396
vt 0.654315 0.252935
vt 0.332400 0.771174
vt 0.792099 0.073817
vt 0.764542 0.101373
vt 0.764542 0.073817
vt 0.902326 0.266714
vt 0.792099 0.101373
vt 0.819656 0.294270
vt 0.332400 0.757396
vt 0.681872 0.252935
vt 0.919551 0.798731
vt 0.919551 0.771174
vt 0.919551 0.826288
vt 0.974665 0.826288
vt 0.547485 0.099889
vt 0.519928 0.099889
vt 0.492372 0.072332
vt 0.547485 0.155002
vt 0.492372 0.182559
vt 0.519928 0.155002
vt 0.492372 0.155002
vt 0.492372 0.099889
vt 0.547485 0.127446
vt 0.519928 0.127446
vt 0.464815 0.127446
vt 0.464815 0.099889
vt 0.464815 0.182559
vt 0.464815 0.155002
vt 0.492372 0.127446
vt 0.167060 0.716061
vt 0.139503 0.743618
vt 0.139503 0.716061
vt 0.139503 0.660947
vt 0.167060 0.688504
vt 0.139503 0.688504
vt 0.139503 0.633391
vt 0.167060 0.660947
vt 0.464815 0.072332
vt 0.902326 0.252935
vt 0.836881 0.881401
vt 0.864438 0.881401
vt 0.864438 0.936515
vt 0.836881 0.964071
vt 0.891995 0.881401
vt 0.891995 0.936515
vt 0.099622 0.128402
vt 0.222174 0.881401
vt 0.111947 0.826288
vt 0.222174 0.936515
vt 0.249730 0.716061
vt 0.699098 0.853844
vt 0.182293 0.100845
vt 0.099622 0.183515
vt 0.681872 0.294270
vt 0.167060 0.743618
vt 0.167060 0.633391
s 0
usemtl マテリアル
f 6/1/1 93/2/1 99/1/1
f 60/3/2 3/4/2 24/5/2
f 59/6/3 8/7/3 26/8/3
f 56/9/2 35/10/2 61/11/2
f 29/12/4 8/13/4 15/14/4
f 2/15/2 92/16/2 32/16/2
f 31/17/5 13/18/5 20/19/5
f 37/20/6 22/21/6 40/22/6
f 57/23/7 19/24/7 58/25/7
f 79/26/8 17/27/8 80/28/8
f 17/27/9 91/29/9 2/29/9
f 27/30/10 15/31/10 13/18/10
f 32/32/2 97/33/2 5/33/2
f 79/26/11 77/34/11 89/35/11
f 81/36/12 17/27/12 2/29/12
f 18/37/13 101/38/13 11/38/13
f 58/25/14 3/4/14 63/39/14
f 40/22/15 1/40/15 35/41/15
f 31/17/16 7/42/16 24/43/16
f 100/44/17 10/44/17 105/44/17
f 3/4/15 31/45/15 24/46/15
f 10/44/18 90/27/18 17/27/18
f 11/38/17 101/38/17 106/38/17
f 4/47/2 96/48/2 95/47/2
f 12/49/6 31/45/6 19/24/6
f 56/9/2 24/50/2 7/51/2
f 18/37/19 95/47/19 94/37/19
f 6/1/20 98/52/20 34/52/20
f 7/42/21 40/53/21 35/54/21
f 15/31/22 37/55/22 13/18/22
f 106/56/23 93/2/23 11/56/23
f 13/18/24 40/53/24 20/19/24
f 5/33/2 96/57/2 25/57/2
f 105/58/25 98/52/25 102/59/25
f 61/60/2 1/61/2 54/62/2
f 62/63/26 8/7/26 55/64/26
f 8/13/27 39/65/27 15/14/27
f 70/66/28 53/67/28 44/68/28
f 76/69/2 42/70/2 69/71/2
f 75/72/2 45/73/2 71/74/2
f 66/75/29 49/76/29 43/77/29
f 54/78/30 48/79/30 42/80/30
f 64/81/31 48/79/31 65/82/31
f 72/83/32 49/76/32 73/84/32
f 71/74/2 52/85/2 76/86/2
f 70/66/33 50/87/33 74/88/33
f 47/89/34 77/34/34 67/90/34
f 75/91/2 43/77/2 51/92/2
f 9/93/35 65/82/35 22/94/35
f 1/95/36 65/82/36 54/78/36
f 44/68/37 62/96/37 55/97/37
f 52/98/2 54/62/2 42/99/2
f 51/100/2 56/9/2 45/73/2
f 49/101/38 63/39/38 43/102/38
f 46/103/39 58/25/39 49/101/39
f 45/73/2 61/11/2 52/85/2
f 44/68/40 59/104/40 50/87/40
f 43/102/2 60/3/2 51/105/2
f 78/106/2 75/91/2 87/107/2
f 53/108/41 77/109/41 47/110/41
f 82/111/42 74/88/42 86/112/42
f 83/113/2 76/86/2 88/114/2
f 84/115/43 73/84/43 85/116/43
f 85/116/44 66/75/44 78/106/44
f 87/117/2 71/74/2 83/113/2
f 81/118/2 76/69/2 69/71/2
f 82/111/45 77/119/45 70/66/45
f 48/120/46 69/121/46 42/122/46
f 84/115/47 74/123/47 72/83/47
f 47/89/48 68/124/48 48/120/48
f 46/125/49 72/83/49 74/123/49
f 6/1/50 89/126/50 82/111/50
f 2/15/2 88/127/2 81/118/2
f 25/57/2 83/113/2 5/33/2
f 18/37/51 78/106/51 4/47/51
f 11/38/52 85/116/52 18/37/52
f 5/33/2 88/114/2 32/32/2
f 6/1/53 86/112/53 23/2/53
f 50/128/54 46/103/54 74/129/54
f 4/47/2 87/107/2 25/48/2
f 69/121/55 80/28/55 81/36/55
f 46/103/56 59/130/56 57/23/56
f 67/90/57 80/28/57 68/124/57
f 62/131/58 47/110/58 64/81/58
f 100/44/59 41/27/59 90/27/59
f 102/132/60 111/133/60 105/134/60
f 92/32/2 14/33/2 97/33/2
f 92/16/2 38/15/2 36/16/2
f 96/48/2 21/47/2 95/47/2
f 30/135/61 106/136/61 112/137/61
f 90/27/62 38/29/62 91/29/62
f 93/2/63 103/1/63 99/1/63
f 106/136/61 110/138/61 112/137/61
f 111/133/60 109/139/60 105/134/60
f 99/1/64 102/52/64 98/52/64
f 34/52/25 98/52/25 10/58/25
f 97/33/2 16/57/2 96/57/2
f 94/37/65 106/38/65 101/38/65
f 94/37/66 21/47/66 28/37/66
f 23/2/23 11/56/23 93/2/23
f 86/112/67 11/56/67 23/2/67
f 111/133/68 103/140/68 107/141/68
f 109/139/68 104/142/68 114/143/68
f 110/138/61 28/144/61 113/145/61
f 109/139/68 107/141/68 108/146/68
f 89/126/69 34/52/69 10/58/69
f 113/147/70 21/148/70 16/149/70
f 36/150/71 104/151/71 14/152/71
f 104/151/71 16/149/71 14/152/71
f 107/141/68 110/138/68 108/146/68
f 108/146/68 113/145/68 104/142/68
f 103/140/68 112/137/68 107/141/68
f 38/153/72 114/154/72 36/150/72
f 79/26/73 89/35/73 10/44/73
f 105/134/60 114/143/60 41/155/60
f 84/115/74 11/38/74 86/156/74
f 27/157/75 12/49/75 29/158/75
f 37/20/75 39/159/75 9/160/75
f 12/49/76 26/161/76 29/158/76
f 33/162/77 9/93/77 39/159/77
f 26/161/78 57/23/78 59/130/78
f 33/162/79 62/131/79 64/81/79
f 6/1/80 23/2/80 93/2/80
f 60/3/2 63/39/2 3/4/2
f 59/6/81 55/64/81 8/7/81
f 56/9/2 7/51/2 35/10/2
f 29/12/82 26/163/82 8/13/82
f 2/15/2 91/15/2 92/16/2
f 31/17/83 27/30/83 13/18/83
f 37/20/6 9/160/6 22/21/6
f 57/23/7 12/49/7 19/24/7
f 79/26/8 10/44/8 17/27/8
f 17/27/9 90/27/9 91/29/9
f 27/30/84 29/164/84 15/31/84
f 32/32/2 92/32/2 97/33/2
f 79/26/85 67/90/85 77/34/85
f 81/36/12 80/28/12 17/27/12
f 18/37/13 94/37/13 101/38/13
f 58/25/86 19/24/86 3/4/86
f 40/22/15 22/21/15 1/40/15
f 31/17/87 20/19/87 7/42/87
f 3/4/15 19/24/15 31/45/15
f 10/44/18 100/44/18 90/27/18
f 4/47/2 25/48/2 96/48/2
f 12/49/6 27/157/6 31/45/6
f 56/9/2 60/165/2 24/50/2
f 18/37/19 4/47/19 95/47/19
f 6/1/88 99/1/88 98/52/88
f 7/42/89 20/19/89 40/53/89
f 15/31/90 39/166/90 37/55/90
f 106/56/23 30/167/23 93/2/23
f 13/18/91 37/55/91 40/53/91
f 5/33/2 97/33/2 96/57/2
f 105/58/25 10/58/25 98/52/25
f 61/60/2 35/168/2 1/61/2
f 62/63/92 33/169/92 8/7/92
f 8/13/93 33/170/93 39/65/93
f 70/66/94 77/119/94 53/67/94
f 76/69/2 52/171/2 42/70/2
f 75/72/2 51/100/2 45/73/2
f 66/75/95 73/84/95 49/76/95
f 54/78/30 65/82/30 48/79/30
f 64/81/31 47/110/31 48/79/31
f 72/83/32 46/125/32 49/76/32
f 71/74/2 45/73/2 52/85/2
f 70/66/96 44/68/96 50/87/96
f 75/91/2 66/75/2 43/77/2
f 9/93/35 64/81/35 65/82/35
f 1/95/97 22/94/97 65/82/97
f 44/68/98 53/67/98 62/96/98
f 52/98/2 61/60/2 54/62/2
f 51/100/2 60/165/2 56/9/2
f 49/101/38 58/25/38 63/39/38
f 46/103/39 57/23/39 58/25/39
f 45/73/2 56/9/2 61/11/2
f 44/68/99 55/97/99 59/104/99
f 43/102/2 63/39/2 60/3/2
f 78/106/2 66/75/2 75/91/2
f 82/111/100 70/66/100 74/88/100
f 83/113/2 71/74/2 76/86/2
f 84/115/43 72/83/43 73/84/43
f 85/116/44 73/84/44 66/75/44
f 87/117/2 75/72/2 71/74/2
f 81/118/2 88/127/2 76/69/2
f 82/111/101 89/126/101 77/119/101
f 48/120/102 68/124/102 69/121/102
f 84/115/103 86/156/103 74/123/103
f 47/89/48 67/90/48 68/124/48
f 6/1/104 34/52/104 89/126/104
f 2/15/2 32/16/2 88/127/2
f 25/57/2 87/117/2 83/113/2
f 18/37/51 85/116/51 78/106/51
f 11/38/52 84/115/52 85/116/52
f 5/33/2 83/113/2 88/114/2
f 6/1/105 82/111/105 86/112/105
f 4/47/2 78/106/2 87/107/2
f 69/121/55 68/124/55 80/28/55
f 46/103/56 50/128/56 59/130/56
f 67/90/57 79/26/57 80/28/57
f 62/131/58 53/108/58 47/110/58
f 100/44/59 105/44/59 41/27/59
f 92/32/2 36/32/2 14/33/2
f 92/16/2 91/15/2 38/15/2
f 96/48/2 16/48/2 21/47/2
f 90/27/62 41/27/62 38/29/62
f 93/2/63 30/2/63 103/1/63
f 99/1/64 103/1/64 102/52/64
f 97/33/2 14/33/2 16/57/2
f 94/37/65 28/37/65 106/38/65
f 94/37/66 95/47/66 21/47/66
f 111/133/68 102/132/68 103/140/68
f 109/139/68 108/146/68 104/142/68
f 110/138/61 106/136/61 28/144/61
f 109/139/68 111/133/68 107/141/68
f 113/147/70 28/172/70 21/148/70
f 36/150/71 114/154/71 104/151/71
f 104/151/71 113/147/71 16/149/71
f 107/141/68 112/137/68 110/138/68
f 108/146/68 110/138/68 113/145/68
f 103/140/68 30/135/68 112/137/68
f 38/153/72 41/173/72 114/154/72
f 105/134/60 109/139/60 114/143/60
f 12/49/106 57/23/106 26/161/106
f 33/162/107 64/81/107 9/93/107
