# Blender 4.1.1
# www.blender.org
mtllib StrongEnemy.mtl
o 立方体.004
v -0.573843 0.523663 -0.147449
v -1.939229 1.985075 -0.147449
v -0.573843 0.523663 0.147449
v -1.939229 1.985075 0.147449
v -0.386927 0.698298 -0.147449
v -1.752312 2.159709 -0.147449
v -0.386927 0.698298 0.147449
v -1.752312 2.159709 0.147449
v -1.000000 -1.000000 1.000000
v -1.000000 1.000000 1.000000
v -1.000000 -1.000000 -1.000000
v -1.000000 1.000000 -1.000000
v 1.000000 -1.000000 1.000000
v 1.000000 1.000000 1.000000
v 1.000000 -1.000000 -1.000000
v 1.000000 1.000000 -1.000000
v 0.368358 0.697561 -0.147449
v 1.732354 2.160269 -0.147449
v 0.368358 0.697561 0.147449
v 1.732354 2.160269 0.147449
v 0.555440 0.523104 -0.147449
v 1.919437 1.985812 -0.147449
v 0.555440 0.523104 0.147449
v 1.919437 1.985812 0.147449
vn 0.0277 0.8160 0.5773
vn 0.8160 -0.0277 0.5774
vn 0.0277 0.8160 -0.5774
vn 0.8160 -0.0277 -0.5773
vn -0.8160 0.0277 0.5774
vn -0.0277 -0.8160 0.5773
vn -0.8160 0.0277 -0.5773
vn -0.0277 -0.8160 -0.5774
vn -0.5773 -0.5774 0.5774
vn -0.5774 0.5773 0.5773
vn -0.5774 -0.5773 -0.5773
vn -0.5773 0.5774 -0.5774
vn 0.5774 -0.5773 0.5773
vn 0.5773 0.5774 0.5774
vn 0.5773 -0.5774 -0.5774
vn 0.5774 0.5773 -0.5773
vn 0.8160 0.0285 0.5773
vn 0.0285 -0.8160 0.5774
vn 0.8160 0.0285 -0.5774
vn 0.0285 -0.8160 -0.5773
vn -0.0285 0.8160 0.5774
vn -0.8160 -0.0285 0.5773
vn -0.0285 0.8160 -0.5773
vn -0.8160 -0.0285 -0.5774
vt 0.625000 0.000000
vt 0.375000 0.250000
vt 0.375000 0.000000
vt 0.625000 0.500000
vt 0.375000 0.500000
vt 0.375000 0.750000
vt 0.625000 0.750000
vt 0.375000 1.000000
vt 0.125000 0.750000
vt 0.125000 0.500000
vt 0.875000 0.500000
vt 0.625000 0.250000
vt 0.625000 1.000000
vt 0.875000 0.750000
s 1
usemtl マテリアル.005
f 2/1/2 3/2/3 1/3/1
f 3/2/3 8/4/8 7/5/7
f 8/4/8 5/6/5 7/5/7
f 6/7/6 1/8/1 5/6/5
f 7/5/7 1/9/1 3/10/3
f 4/11/4 6/7/6 8/4/8
f 10/1/10 11/2/11 9/3/9
f 12/12/12 15/5/15 11/2/11
f 16/4/16 13/6/13 15/5/15
f 14/7/14 9/8/9 13/6/13
f 15/5/15 9/9/9 11/10/11
f 12/11/12 14/7/14 16/4/16
f 18/1/18 19/2/19 17/3/17
f 20/12/20 23/5/23 19/2/19
f 24/4/24 21/6/21 23/5/23
f 21/6/21 18/13/18 17/8/17
f 23/5/23 17/9/17 19/10/19
f 20/11/20 22/7/22 24/4/24
f 2/1/2 4/12/4 3/2/3
f 3/2/3 4/12/4 8/4/8
f 8/4/8 6/7/6 5/6/5
f 6/7/6 2/13/2 1/8/1
f 7/5/7 5/6/5 1/9/1
f 4/11/4 2/14/2 6/7/6
f 10/1/10 12/12/12 11/2/11
f 12/12/12 16/4/16 15/5/15
f 16/4/16 14/7/14 13/6/13
f 14/7/14 10/13/10 9/8/9
f 15/5/15 13/6/13 9/9/9
f 12/11/12 10/14/10 14/7/14
f 18/1/18 20/12/20 19/2/19
f 20/12/20 24/4/24 23/5/23
f 24/4/24 22/7/22 21/6/21
f 21/6/21 22/7/22 18/13/18
f 23/5/23 21/6/21 17/9/17
f 20/11/20 18/14/18 22/7/22
