# Blender 4.5.2 LTS
# www.blender.org
mtllib PlayerEngineEffect.mtl
o 円柱
v -1.000000 -0.000000 0.218519
v -1.000000 0.000000 -4.218519
v -0.923879 -0.382684 0.218519
v -0.923880 -0.382683 -4.218519
v -0.707107 -0.707107 0.218519
v -0.707107 -0.707107 -4.218519
v -0.382683 -0.923880 0.218519
v -0.382684 -0.923879 -4.218519
v 0.000000 -1.000000 0.218519
v -0.000000 -1.000000 -4.218519
v 0.382684 -0.923880 0.218519
v 0.382683 -0.923879 -4.218519
v 0.707107 -0.707107 0.218519
v 0.707107 -0.707107 -4.218519
v 0.923880 -0.382684 0.218519
v 0.923879 -0.382683 -4.218519
v 1.000000 -0.000000 0.218519
v 1.000000 0.000000 -4.218519
v 0.923880 0.382683 0.218519
v 0.923879 0.382684 -4.218519
v 0.707107 0.707107 0.218519
v 0.707107 0.707107 -4.218519
v 0.382684 0.923879 0.218519
v 0.382683 0.923880 -4.218519
v 0.000000 1.000000 0.218519
v -0.000000 1.000000 -4.218519
v -0.382683 0.923879 0.218519
v -0.382684 0.923880 -4.218519
v -0.707107 0.707107 0.218519
v -0.707107 0.707107 -4.218519
v -0.923879 0.382683 0.218519
v -0.923880 0.382684 -4.218519
vn -0.9808 -0.1951 -0.0000
vn -0.8315 -0.5556 -0.0000
vn -0.5556 -0.8315 -0.0000
vn -0.1951 -0.9808 -0.0000
vn 0.1951 -0.9808 -0.0000
vn 0.5556 -0.8315 -0.0000
vn 0.8315 -0.5556 -0.0000
vn 0.9808 -0.1951 -0.0000
vn 0.9808 0.1951 -0.0000
vn 0.8315 0.5556 -0.0000
vn 0.5556 0.8315 -0.0000
vn 0.1951 0.9808 -0.0000
vn -0.1951 0.9808 -0.0000
vn -0.5556 0.8315 -0.0000
vn -0.8315 0.5556 -0.0000
vn -0.9808 0.1951 -0.0000
vt 0.000000 0.000000
vt 0.062500 1.000000
vt 0.000000 1.000000
vt 0.125000 0.000000
vt 0.125000 1.000000
vt 0.187500 1.000000
vt 0.187500 0.000000
vt 0.250000 1.000000
vt 0.250000 0.000000
vt 0.312500 1.000000
vt 0.312500 0.000000
vt 0.375000 1.000000
vt 0.375000 0.000000
vt 0.437500 1.000000
vt 0.437500 0.000000
vt 0.500000 1.000000
vt 0.500000 0.000000
vt 0.562500 1.000000
vt 0.562500 0.000000
vt 0.625000 1.000000
vt 0.625000 0.000000
vt 0.687500 1.000000
vt 0.687500 0.000000
vt 0.750000 1.000000
vt 0.750000 0.000000
vt 0.812500 1.000000
vt 0.812500 0.000000
vt 0.875000 1.000000
vt 0.875000 0.000000
vt 0.937500 1.000000
vt 0.937500 0.000000
vt 1.000000 1.000000
vt 0.062500 0.000000
vt 1.000000 0.000000
s 0
usemtl マテリアル
f 2/1/1 3/2/1 1/3/1
f 3/2/2 6/4/2 5/5/2
f 6/4/3 7/6/3 5/5/3
f 8/7/4 9/8/4 7/6/4
f 10/9/5 11/10/5 9/8/5
f 12/11/6 13/12/6 11/10/6
f 14/13/7 15/14/7 13/12/7
f 16/15/8 17/16/8 15/14/8
f 18/17/9 19/18/9 17/16/9
f 20/19/10 21/20/10 19/18/10
f 22/21/11 23/22/11 21/20/11
f 24/23/12 25/24/12 23/22/12
f 26/25/13 27/26/13 25/24/13
f 28/27/14 29/28/14 27/26/14
f 30/29/15 31/30/15 29/28/15
f 32/31/16 1/32/16 31/30/16
f 2/1/1 4/33/1 3/2/1
f 3/2/2 4/33/2 6/4/2
f 6/4/3 8/7/3 7/6/3
f 8/7/4 10/9/4 9/8/4
f 10/9/5 12/11/5 11/10/5
f 12/11/6 14/13/6 13/12/6
f 14/13/7 16/15/7 15/14/7
f 16/15/8 18/17/8 17/16/8
f 18/17/9 20/19/9 19/18/9
f 20/19/10 22/21/10 21/20/10
f 22/21/11 24/23/11 23/22/11
f 24/23/12 26/25/12 25/24/12
f 26/25/13 28/27/13 27/26/13
f 28/27/14 30/29/14 29/28/14
f 30/29/15 32/31/15 31/30/15
f 32/31/16 2/34/16 1/32/16
