# Blender 4.1.1
# www.blender.org
mtllib Player.mtl
o Player
v 0.420000 -0.473799 -2.557707
v 0.560000 0.751201 -3.309698
v 0.420000 -0.473799 4.000000
v 0.504000 0.686325 4.000000
v -0.420000 -0.473799 -2.557707
v -0.560000 0.751201 -3.309698
v -0.420000 -0.473799 4.000000
v -0.503999 0.686325 4.000000
v 0.000000 -0.473799 4.000000
v 0.000000 0.751201 4.000000
v -0.000000 -0.473799 -2.557707
v -0.000000 0.751201 -3.231735
v 0.420000 -0.473799 -0.000000
v 0.560000 0.751201 0.430076
v -0.420000 -0.473799 0.000000
v -0.560000 0.751201 0.430076
v 0.000000 0.751201 0.430076
v 0.000000 -0.473799 -0.000000
v 0.560000 0.051201 -3.557707
v 0.560000 0.051201 4.000000
v -0.560000 0.051201 4.000000
v -0.560000 0.051201 -3.557707
v -0.000000 0.051201 -3.557707
v 1.674400 0.107486 -0.000000
v -0.728000 0.107486 0.000000
v 0.728000 0.107486 -0.000000
v 0.210000 -0.473799 4.000000
v 0.098896 0.751201 -3.309698
v 0.280000 0.751201 4.000000
v 0.210000 -0.473799 -2.557707
v 0.210000 -0.473799 -0.000000
v 0.280000 0.751201 0.430076
v 1.674400 0.323912 -0.000000
v 0.280000 0.051201 -3.557707
v -0.280000 0.751201 4.000000
v -0.210000 -0.473799 -2.557707
v -0.210000 -0.473799 4.000000
v -0.098897 0.751201 -3.309698
v -0.280000 0.751201 0.430076
v -0.210000 -0.473799 0.000000
v -0.280000 0.051201 -3.557707
v 1.674400 0.323912 2.000000
v 0.560000 0.751201 2.430076
v -0.420000 -0.473799 2.000000
v 0.420000 -0.473799 2.000000
v -0.560000 0.751201 2.430076
v 0.000000 -0.473799 2.000000
v -0.728000 0.107486 2.500000
v 0.728000 0.107486 2.500000
v 0.210000 -0.473799 2.000000
v -0.210000 -0.473799 2.000000
v 0.420000 -0.473799 -1.557707
v -0.560000 0.751201 -1.557707
v -0.000000 0.751201 -1.557707
v -0.000000 -0.473799 -1.557707
v 0.560000 0.751201 -1.557707
v -0.420000 -0.473799 -1.557707
v 0.560000 0.051201 -1.557707
v -0.560000 0.051201 -1.557707
v 0.210000 -0.473799 -1.557707
v 0.098663 0.754439 -1.557707
v -0.098664 0.754439 -1.557707
v -0.210000 -0.473799 -1.557707
v 0.560000 0.173738 -3.557707
v 0.560000 0.401201 4.000000
v -0.560000 0.401201 4.000000
v -0.560000 0.173738 -3.557707
v 1.674400 -0.108941 -0.000000
v -0.728000 0.323912 0.000000
v 0.728000 0.323912 -0.000000
v 1.674400 0.107486 2.000000
v 0.280000 0.401201 -3.557707
v -0.280000 0.401201 -3.557707
v 1.674400 -0.108941 2.000000
v -0.728000 0.323912 2.500000
v 0.728000 0.323912 2.500000
v 0.560000 0.173738 -1.557707
v -0.560000 0.173738 -1.557707
v 0.560000 -0.298799 4.000000
v -0.560000 -0.298799 4.000000
v -0.560000 -0.298799 -3.057707
v -0.000000 -0.298799 -3.057707
v 0.000000 -0.298799 4.000000
v -0.728000 -0.108941 0.000000
v 0.728000 -0.108941 -0.000000
v 0.560000 -0.298799 -3.057707
v 0.280000 -0.298799 -3.057707
v 0.280000 -0.298799 4.000000
v -0.280000 -0.298799 4.000000
v -0.280000 -0.298799 -3.057707
v 0.728000 -0.108941 2.000000
v -0.728000 -0.108941 2.000000
v -0.560000 -0.298799 -1.557707
v 0.560000 -0.298799 -1.557707
v 1.965600 0.323912 -0.000000
v 1.965600 0.107486 -0.000000
v 1.965600 0.107486 2.000000
v 1.965600 0.323912 2.000000
v 1.965600 -0.108941 -0.000000
v 1.965600 -0.108941 2.000000
v -1.965600 0.323912 0.000000
v -1.965600 0.107486 0.000000
v -1.965600 0.107486 2.000000
v -1.965600 0.323912 2.000000
v -1.965600 -0.108941 0.000000
v -1.965600 -0.108941 2.000000
v 0.560000 0.751201 3.430076
v -0.420000 -0.473799 3.000000
v 0.560000 0.051201 3.000000
v 0.420000 -0.473799 3.000000
v -0.560000 0.751201 3.430076
v 0.000000 0.751201 3.430076
v 0.000000 -0.473799 3.000000
v -0.560000 0.051201 3.000000
v 0.280000 0.751201 3.430076
v 0.210000 -0.473799 3.000000
v -0.210000 -0.473799 3.000000
v -0.280000 0.751201 3.430076
v -0.560000 0.401201 3.000000
v 0.560000 0.401201 3.000000
v -0.560000 -0.298799 3.000000
v 0.560000 -0.298799 3.000000
v 0.420000 -0.473799 1.000000
v -0.560000 0.751201 1.430076
v 0.000000 -0.473799 1.000000
v 0.210000 -0.473799 1.000000
v -0.210000 -0.473799 1.000000
v 0.560000 0.751201 1.430076
v -0.420000 -0.473799 1.000000
v 0.728000 0.323912 1.000000
v -0.728000 0.323912 1.000000
v 0.728000 -0.108941 1.000000
v -0.728000 -0.108941 1.000000
v 1.965600 0.107486 1.000000
v 1.965600 0.323912 1.000000
v 1.965600 -0.108941 1.000000
v -1.965600 0.107486 1.000000
v -1.965600 0.323912 1.000000
v -1.965600 -0.108941 1.000000
v 0.280000 1.101201 1.430076
v 0.280000 1.101201 2.430076
v -0.140000 1.101201 2.430076
v -0.280000 1.101201 2.430076
v 0.140000 1.101201 2.430076
v 0.000000 1.101201 2.430076
v -0.280000 1.101201 1.430076
v 0.000000 1.101201 1.430076
v 0.140000 1.101201 1.430076
v -0.140000 1.101201 1.430076
v 3.640000 0.323912 -0.000001
v 3.640000 0.107486 -0.000001
v 3.640000 0.107486 0.999999
v 2.730000 0.107486 2.000000
v 2.730000 0.323912 2.000000
v 3.640000 0.323912 0.999999
v -3.640000 0.323912 0.000001
v -3.640000 0.107486 0.000001
v -3.640000 0.107486 1.000001
v -2.730000 0.323912 2.000001
v -2.730000 0.107486 2.000001
v -3.640000 0.323912 1.000001
v -0.279999 0.751201 4.500000
v -0.420000 0.619951 4.500000
v 0.280001 0.751201 4.500000
v 0.000001 0.751201 4.500000
v 0.560000 0.401201 4.500000
v 0.560000 0.051201 4.500000
v -0.560000 0.401201 4.500000
v -0.560000 0.051201 4.500000
v 0.000001 0.401201 5.250000
v 0.000001 0.051201 5.250000
v 0.280001 0.051201 5.250000
v -0.279999 0.051201 5.250000
v 0.420000 0.619951 4.500000
v 0.280001 0.401201 5.250000
v -0.279999 0.401201 5.250000
v 0.420000 -0.167549 4.500000
v -0.420000 -0.167549 4.500000
v 0.000001 -0.298799 4.500000
v 0.280001 -0.298799 4.500000
v -0.279999 -0.298799 4.500000
v 1.674400 0.323912 1.000000
v 1.674400 -0.108941 1.000000
v -1.674400 0.107486 0.000000
v -1.674400 0.323912 0.000000
v -1.674400 -0.108941 2.000000
v -1.674400 -0.108941 0.000000
v -1.674400 0.323912 2.000000
v -1.674400 0.107486 2.000000
v -1.674400 0.323912 1.000000
v -1.674400 -0.108941 1.000000
v 1.892800 0.053379 2.416556
v 1.747200 0.053379 2.416556
v 1.747200 -0.054834 2.416556
v 1.892800 -0.054834 2.416556
v -1.892800 0.053379 2.416556
v -1.892800 -0.054834 2.416556
v -1.747200 -0.054834 2.416556
v -1.747200 0.053379 2.416556
v -0.076360 1.485867 -3.309698
v -0.000000 1.640165 -3.304736
v -0.000000 0.761201 -1.557707
v 0.076360 1.485867 -3.309698
v 0.098663 0.757963 -1.557707
v -0.098664 0.757963 -1.557707
vn -0.0000 -0.9672 0.2539
vn -0.7809 0.6247 -0.0000
vn -0.3053 0.3758 -0.8750
vn -1.0000 -0.0000 -0.0000
vn -0.0000 1.0000 -0.0000
vn -0.0000 -1.0000 -0.0000
vn -0.0000 -0.0000 1.0000
vn -0.0000 -0.0000 -1.0000
vn -0.9307 0.3659 -0.0000
vn 0.9942 -0.0000 -0.1072
vn 0.7809 -0.6247 -0.0000
vn -0.0000 -0.8192 -0.5735
vn -0.7809 -0.6247 -0.0000
vn 1.0000 -0.0000 -0.0000
vn -0.9630 -0.0000 0.2696
vn -0.9995 0.0307 -0.0000
vn -0.9479 -0.0000 0.3185
vn 0.9307 0.3659 -0.0000
vn -0.9942 -0.0000 -0.1072
vn 0.9851 -0.0000 0.1722
vn -0.0000 0.5782 -0.8159
vn 0.9479 -0.0000 0.3185
vn 0.7641 -0.6450 0.0059
vn -0.9851 -0.0000 0.1722
vn -0.9639 0.1893 0.1871
vn 0.2782 0.9605 -0.0000
vn 0.9551 0.2298 -0.1870
vn 0.7641 -0.6451 -0.0000
vn -0.7641 -0.6451 -0.0038
vn -0.7641 -0.6451 -0.0000
vn -0.0000 -0.9439 -0.3304
vn -0.9368 -0.0000 0.3498
vn -0.0000 0.9917 0.1288
vn -0.2782 0.9605 -0.0000
vn -0.9745 0.1914 0.1175
vn 0.9594 -0.2588 0.1120
vn 0.8898 0.3889 0.2388
vn -0.0000 1.0000 0.0016
vn 0.7809 0.6247 -0.0000
vn -0.0000 0.9439 -0.3304
vn -0.9551 0.2298 -0.1870
vn -0.2741 0.9463 0.1717
vn 0.7396 -0.0000 0.6730
vn -0.0000 -0.9062 0.4229
vn -0.7497 0.5997 0.2799
vn -0.7396 -0.0000 0.6730
vn -0.7497 -0.5997 0.2799
vn -0.0000 0.9062 0.4229
vn 0.9368 -0.0000 0.3498
vn 0.0328 0.9995 -0.0000
vn 0.2741 0.9463 0.1717
vn -0.4671 -0.0000 0.8842
vn 0.2054 -0.8982 0.3888
vn -0.0000 0.9439 0.3304
vn 0.4671 -0.0000 0.8842
vn -0.0000 -0.9917 0.1288
vn 0.9639 0.1893 0.1871
vn 0.9630 -0.0000 0.2696
vn -0.6839 -0.7295 -0.0000
vn 0.6839 -0.7295 -0.0000
vn -0.9594 -0.2588 0.1120
vn -0.8898 0.3889 0.2388
vn -0.2054 -0.8982 0.3888
vn 0.9745 0.1914 0.1175
vn 0.7497 -0.5997 0.2799
vn 0.7497 0.5997 0.2799
vn 0.0303 0.9232 0.3832
vn -0.8780 0.4276 0.2151
vn 0.2243 -0.0798 -0.9713
vn -0.6190 -0.0190 -0.7852
vn 1.0000 -0.0000 0.0001
vn -0.6025 0.2298 -0.7643
vn 0.6025 0.2298 -0.7643
vn -0.0000 0.6815 -0.7318
vn -0.0070 1.0000 -0.0018
vn 0.7641 -0.6451 -0.0038
vn -0.8423 -0.5391 -0.0000
vn -1.0000 -0.0000 0.0001
vn 0.3053 0.3758 -0.8750
vn -0.8423 0.5391 -0.0000
vn -0.0000 0.9936 0.1131
vn 0.7291 0.5832 0.3582
vn 0.0070 1.0000 0.0010
vn -0.0070 1.0000 0.0010
vn -0.7641 -0.6450 0.0059
vn -0.0328 0.9995 -0.0000
vn -0.7291 0.5832 0.3582
vn -0.6839 0.7295 -0.0000
vn 0.6839 0.7295 -0.0000
vn 0.8423 0.5391 -0.0000
vn 0.8423 -0.5391 -0.0000
vn 0.8780 0.4276 0.2151
vn -0.0303 0.9232 0.3832
vn 0.6190 -0.0190 -0.7852
vn -0.2243 -0.0798 -0.9713
vn 0.9995 0.0307 -0.0000
vn 0.0070 1.0000 -0.0018
vt 0.250000 0.764211
vt 0.250000 0.787109
vt 0.318694 0.278757
vt 0.318694 0.290206
vt 0.318694 0.878702
vt 0.295796 0.901600
vt 0.295796 0.878702
vt 0.295796 0.855803
vt 0.318694 0.855803
vt 0.318694 0.901600
vt 0.204204 0.878702
vt 0.227102 0.855803
vt 0.227102 0.878702
vt 0.227102 0.787109
vt 0.227102 0.764211
vt 0.295796 0.970294
vt 0.272898 0.947396
vt 0.295796 0.947396
vt 0.158408 0.878702
vt 0.135510 0.855803
vt 0.158408 0.855803
vt 0.181306 0.855803
vt 0.181306 0.878702
vt 0.318694 0.832905
vt 0.295796 0.821456
vt 0.318694 0.821456
vt 0.318694 0.626823
vt 0.295796 0.649721
vt 0.295796 0.626823
vt 0.250000 0.626823
vt 0.227102 0.649721
vt 0.227102 0.626823
vt 0.250000 0.821456
vt 0.250000 0.832905
vt 0.204204 0.832905
vt 0.227102 0.821456
vt 0.227102 0.832905
vt 0.295796 0.787109
vt 0.272898 0.787109
vt 0.158408 0.821456
vt 0.135510 0.810007
vt 0.158408 0.810007
vt 0.272898 0.855803
vt 0.250000 0.878702
vt 0.250000 0.855803
vt 0.272898 0.901600
vt 0.250000 0.924498
vt 0.250000 0.901600
vt 0.227102 0.798558
vt 0.250000 0.798558
vt 0.250000 0.695517
vt 0.272898 0.684068
vt 0.272898 0.695517
vt 0.158408 0.798558
vt 0.135510 0.787109
vt 0.158408 0.787109
vt 0.341592 0.787109
vt 0.364490 0.787109
vt 0.181306 0.798558
vt 0.181306 0.787109
vt 0.295796 0.695517
vt 0.250000 0.970294
vt 0.250000 0.947396
vt 0.341592 0.878702
vt 0.341592 0.855803
vt 0.272898 0.878702
vt 0.295796 0.832905
vt 0.295796 0.821456
vt 0.250000 0.718415
vt 0.181306 0.832905
vt 0.204204 0.821456
vt 0.364490 0.278757
vt 0.341592 0.290206
vt 0.341592 0.278757
vt 0.272898 0.810007
vt 0.272898 0.798558
vt 0.181306 0.810007
vt 0.204204 0.798558
vt 0.204204 0.810007
vt 0.387388 0.290206
vt 0.410286 0.278757
vt 0.410286 0.290206
vt 0.318694 0.661170
vt 0.295796 0.672619
vt 0.295796 0.661170
vt 0.227102 0.810007
vt 0.272898 0.649721
vt 0.272898 0.661170
vt 0.387388 0.278757
vt 0.364490 0.290206
vt 0.204204 0.855803
vt 0.272898 0.626823
vt 0.250000 0.649721
vt 0.158408 0.832905
vt 0.250000 0.603925
vt 0.318694 0.603925
vt 0.227102 0.695517
vt 0.250000 0.684068
vt 0.272898 0.832905
vt 0.250000 0.741313
vt 0.227102 0.741313
vt 0.250000 0.810007
vt 0.318694 0.970294
vt 0.318694 0.947396
vt 0.295796 0.603925
vt 0.272898 0.970294
vt 0.272898 0.672619
vt 0.227102 0.603925
vt 0.227102 0.672619
vt 0.250000 0.672619
vt 0.318694 0.787109
vt 0.410286 0.787109
vt 0.387388 0.798558
vt 0.387388 0.787109
vt 0.227102 0.718415
vt 0.226788 0.228356
vt 0.175974 0.077605
vt 0.232434 0.228356
vt 0.181306 0.821456
vt 0.250000 0.661170
vt 0.410286 0.855803
vt 0.387388 0.832905
vt 0.410286 0.832905
vt 0.341592 0.832905
vt 0.272898 0.821456
vt 0.318694 0.684068
vt 0.295796 0.684068
vt 0.227102 0.970294
vt 0.227102 0.947396
vt 0.606882 0.255859
vt 0.629780 0.232961
vt 0.629780 0.255859
vt 0.295796 0.810007
vt 0.295796 0.798558
vt 0.387388 0.855803
vt 0.364490 0.855803
vt 0.341592 0.798558
vt 0.318694 0.798558
vt 0.364490 0.798558
vt 0.227102 0.901600
vt 0.318694 0.672619
vt 0.364490 0.832905
vt 0.204204 0.787109
vt 0.227102 0.924498
vt 0.318694 0.649721
vt 0.318694 0.141369
vt 0.318694 0.129920
vt 0.227102 0.661170
vt 0.272898 0.924498
vt 0.318694 0.810007
vt 0.089714 0.072675
vt 0.226788 0.256586
vt 0.606882 0.210063
vt 0.583984 0.232961
vt 0.583984 0.210063
vt 0.652678 0.232961
vt 0.606882 0.232961
vt 0.606882 0.164267
vt 0.583984 0.187165
vt 0.583984 0.164267
vt 0.652678 0.187165
vt 0.629780 0.164267
vt 0.652678 0.164267
vt 0.606882 0.187165
vt 0.652678 0.210063
vt 0.629780 0.187165
vt 0.629780 0.210063
vt 0.135510 0.832905
vt 0.318694 0.695517
vt 0.272898 0.603925
vt 0.652678 0.255859
vt 0.583984 0.255859
vt 0.387388 0.878702
vt 0.364490 0.878702
vt 0.934803 0.902139
vt 0.911905 0.902139
vt 0.957701 0.902139
vt 0.821726 0.961068
vt 0.821726 0.938170
vt 0.844624 0.961068
vt 0.821726 0.915271
vt 0.844624 0.915271
vt 0.867522 0.961068
vt 0.983631 0.915811
vt 0.867522 0.915271
vt 0.135510 0.878702
vt 0.135510 0.821456
vt 0.135510 0.798558
vt 0.227102 0.684068
vt 0.410286 0.798558
vt 0.232434 0.094543
vt 0.232434 0.259409
s 0
usemtl マテリアル
f 89/1/1 178/2/1 80/2/1
f 143/3/2 124/4/2 46/3/2
f 6/5/3 73/6/3 67/7/3
f 6/5/4 78/8/4 53/9/4
f 53/9/5 38/10/5 6/5/5
f 36/11/6 57/12/6 5/13/6
f 89/1/7 7/14/7 37/15/7
f 64/16/8 34/17/8 72/18/8
f 30/19/6 52/20/6 60/21/6
f 30/19/6 55/22/6 11/23/6
f 16/24/9 131/25/9 124/26/9
f 56/27/10 70/28/10 77/29/10
f 94/30/11 13/31/11 52/32/11
f 191/33/6 105/34/6 187/34/6
f 40/35/6 129/36/6 15/37/6
f 168/38/4 21/39/4 169/39/4
f 126/40/6 45/41/6 50/42/6
f 59/43/4 81/44/4 93/45/4
f 41/46/12 82/47/12 90/48/12
f 108/49/13 80/2/13 121/50/13
f 79/51/14 109/52/14 20/53/14
f 116/54/6 3/55/6 27/56/6
f 35/57/5 165/58/5 10/58/5
f 113/59/6 27/56/6 9/60/6
f 167/53/14 65/61/14 166/61/14
f 178/2/15 21/39/15 80/2/15
f 34/17/12 86/62/12 87/63/12
f 38/64/16 205/65/16 200/64/16
f 67/7/8 41/46/8 22/66/8
f 131/25/5 185/67/5 190/68/5
f 177/51/1 88/69/1 79/51/1
f 18/70/6 127/71/6 40/35/6
f 133/33/6 187/34/6 84/34/6
f 145/72/5 149/73/5 142/74/5
f 48/75/17 121/50/17 114/76/17
f 47/77/6 117/78/6 51/79/6
f 148/80/5 141/81/5 140/82/5
f 128/83/18 76/84/18 130/85/18
f 51/79/6 108/49/6 44/86/6
f 151/87/6 134/88/6 96/87/6
f 144/89/5 147/90/5 145/72/5
f 55/22/6 40/35/6 63/91/6
f 58/92/10 85/93/10 94/30/10
f 52/20/6 31/94/6 60/21/6
f 86/95/14 58/92/14 94/30/14
f 77/29/14 2/96/14 56/27/14
f 3/97/11 122/98/11 79/51/11
f 24/87/8 95/28/8 96/87/8
f 60/21/6 18/70/6 55/22/6
f 53/9/9 69/67/9 16/24/9
f 59/43/19 84/34/19 25/99/19
f 83/100/7 37/15/7 9/101/7
f 199/75/20 186/102/20 189/75/20
f 63/91/6 15/37/6 57/12/6
f 78/8/19 25/99/19 69/67/19
f 92/102/7 189/75/7 186/102/7
f 2/103/21 72/18/21 28/104/21
f 42/84/5 130/85/5 76/84/5
f 64/105/14 58/92/14 19/106/14
f 76/84/22 109/52/22 49/107/22
f 1/108/11 94/30/11 52/32/11
f 122/98/23 45/109/23 91/110/23
f 78/8/4 22/66/4 59/43/4
f 196/75/24 106/102/24 197/102/24
f 66/38/25 163/111/25 8/111/25
f 4/112/26 115/113/26 29/114/26
f 3/97/7 88/69/7 27/115/7
f 27/115/7 83/100/7 9/101/7
f 186/102/6 139/33/6 191/33/6
f 93/45/13 5/13/13 57/12/13
f 120/116/27 141/117/27 107/118/27
f 77/29/10 26/87/10 58/92/10
f 18/70/6 126/40/6 125/119/6
f 45/109/28 132/120/28 91/110/28
f 93/45/29 15/37/29 84/34/29
f 134/88/14 99/93/14 96/87/14
f 56/121/5 32/122/5 14/123/5
f 39/124/5 53/9/5 16/24/5
f 15/37/30 133/33/30 84/34/30
f 97/107/7 42/84/7 71/107/7
f 185/67/8 25/99/8 184/99/8
f 99/93/8 24/87/8 96/87/8
f 142/74/5 146/4/5 143/3/5
f 156/67/5 138/25/5 101/67/5
f 105/34/4 137/125/4 102/99/4
f 156/67/8 102/99/8 157/99/8
f 101/67/8 184/99/8 102/99/8
f 179/100/6 89/1/6 83/100/6
f 107/126/14 65/61/14 120/127/14
f 87/63/31 1/128/31 30/129/31
f 183/120/6 100/110/6 74/110/6
f 121/50/13 44/86/13 108/49/13
f 169/130/32 176/131/32 168/132/32
f 71/107/33 192/107/33 97/107/33
f 129/36/30 92/102/30 133/33/30
f 75/133/17 114/76/17 119/134/17
f 61/135/7 202/136/7 54/136/7
f 68/93/6 136/120/6 183/120/6
f 22/66/12 90/48/12 81/44/12
f 118/137/34 8/111/34 35/57/34
f 114/76/4 66/38/4 119/134/4
f 111/138/35 66/38/35 8/111/35
f 117/78/6 7/14/6 108/49/6
f 155/85/5 95/28/5 135/85/5
f 112/139/5 29/114/5 115/113/5
f 121/50/4 21/39/4 114/76/4
f 5/13/31 90/48/31 36/140/31
f 49/107/36 122/98/36 91/110/36
f 43/141/37 120/127/37 76/84/37
f 61/135/38 17/142/38 32/122/38
f 113/59/6 37/143/6 117/78/6
f 82/47/31 30/129/31 11/144/31
f 160/75/7 104/133/7 159/133/7
f 154/84/5 135/85/5 98/84/5
f 36/140/31 82/47/31 11/144/31
f 92/102/6 191/33/6 133/33/6
f 139/33/4 103/75/4 137/125/4
f 14/145/18 130/85/18 70/28/18
f 141/146/39 128/147/39 140/147/39
f 123/148/28 85/93/28 132/120/28
f 132/120/6 74/110/6 91/110/6
f 125/119/6 51/79/6 127/71/6
f 87/63/12 23/149/12 34/17/12
f 124/26/9 75/133/9 46/150/9
f 33/28/5 130/85/5 182/85/5
f 125/119/6 50/42/6 47/77/6
f 190/68/5 101/67/5 138/25/5
f 138/25/5 188/133/5 190/68/5
f 47/77/6 116/54/6 113/59/6
f 140/151/40 16/151/40 146/151/40
f 143/117/41 119/152/41 111/117/41
f 128/147/39 14/151/39 140/147/39
f 124/4/2 146/4/2 16/151/2
f 163/111/42 35/57/42 8/111/42
f 127/71/6 44/86/6 129/36/6
f 153/107/43 155/85/43 154/84/43
f 134/88/6 153/107/6 97/107/6
f 171/153/44 181/154/44 179/155/44
f 152/88/14 150/28/14 155/85/14
f 154/84/7 97/107/7 153/107/7
f 151/87/8 95/28/8 150/28/8
f 157/99/4 161/25/4 156/67/4
f 160/75/6 137/125/6 103/75/6
f 137/125/6 157/99/6 102/99/6
f 112/139/5 35/57/5 10/58/5
f 138/25/5 159/133/5 104/133/5
f 162/156/45 168/132/45 176/131/45
f 158/125/46 159/133/46 161/25/46
f 98/84/5 182/85/5 42/84/5
f 169/130/47 181/154/47 173/157/47
f 167/158/7 180/159/7 177/160/7
f 164/161/7 166/162/7 174/163/7
f 172/164/44 179/155/44 180/159/44
f 165/165/48 175/166/48 164/161/48
f 162/156/48 170/167/48 165/165/48
f 173/157/7 170/167/7 176/131/7
f 172/164/49 166/162/49 175/166/49
f 62/65/50 17/142/50 54/136/50
f 29/114/51 174/112/51 4/112/51
f 171/153/7 175/166/7 170/167/7
f 10/58/5 164/114/5 29/114/5
f 26/87/8 33/28/8 24/87/8
f 13/168/6 126/40/6 31/94/6
f 85/93/6 183/120/6 132/120/6
f 196/75/7 198/102/7 199/75/7
f 75/133/52 189/75/52 48/75/52
f 131/25/5 188/133/5 75/133/5
f 91/110/53 71/107/53 49/107/53
f 135/85/5 33/28/5 182/85/5
f 36/11/6 55/22/6 63/91/6
f 68/93/8 26/87/8 24/87/8
f 187/34/8 25/99/8 84/34/8
f 100/110/14 134/88/14 97/107/14
f 188/133/7 103/75/7 189/75/7
f 143/151/54 107/151/54 141/151/54
f 105/34/8 184/99/8 187/34/8
f 71/107/55 76/84/55 49/107/55
f 45/41/6 116/54/6 50/42/6
f 195/110/20 97/107/20 192/107/20
f 186/102/56 197/102/56 106/102/56
f 199/75/33 103/75/33 196/75/33
f 195/110/56 74/110/56 100/110/56
f 174/169/57 65/61/57 4/169/57
f 59/43/4 22/66/4 81/44/4
f 86/95/14 19/170/14 58/92/14
f 1/108/11 86/95/11 94/30/11
f 93/45/13 81/44/13 5/13/13
f 193/107/24 74/110/24 194/110/24
f 20/53/58 177/51/58 79/51/58
f 192/107/7 194/110/7 195/110/7
f 180/69/6 83/100/6 88/69/6
f 89/1/59 181/1/59 178/2/59
f 16/24/9 69/67/9 131/25/9
f 56/27/18 14/145/18 70/28/18
f 177/51/60 180/69/60 88/69/60
f 48/75/61 92/102/61 121/50/61
f 46/150/62 75/133/62 119/134/62
f 128/83/18 43/141/18 76/84/18
f 53/9/19 78/8/19 69/67/19
f 92/102/63 48/75/63 189/75/63
f 107/126/64 4/169/64 65/61/64
f 111/138/4 119/134/4 66/38/4
f 49/107/22 109/52/22 122/98/22
f 154/84/5 155/85/5 135/85/5
f 14/145/18 128/83/18 130/85/18
f 124/26/9 131/25/9 75/133/9
f 134/88/6 152/88/6 153/107/6
f 160/75/6 158/125/6 137/125/6
f 138/25/5 161/25/5 159/133/5
f 162/156/7 163/171/7 168/132/7
f 169/130/7 178/172/7 181/154/7
f 167/158/65 172/164/65 180/159/65
f 164/161/66 175/166/66 166/162/66
f 91/110/7 74/110/7 71/107/7
f 20/53/14 120/127/14 65/61/14
f 203/173/67 202/136/67 204/135/67
f 200/64/68 202/136/68 201/174/68
f 12/175/69 200/176/69 201/175/69
f 12/175/70 203/177/70 28/177/70
f 28/173/71 204/135/71 61/135/71
f 54/136/7 205/65/7 62/65/7
f 28/173/5 56/121/5 2/96/5
f 34/178/8 23/179/8 72/180/8
f 41/181/8 73/182/8 23/179/8
f 28/183/72 72/180/72 12/184/72
f 12/184/73 73/182/73 38/185/73
f 72/180/74 73/182/74 12/184/74
f 72/180/8 23/179/8 73/182/8
f 143/3/2 146/4/2 124/4/2
f 6/5/21 38/10/21 73/6/21
f 6/5/4 67/7/4 78/8/4
f 53/9/75 62/65/75 38/10/75
f 36/11/6 63/91/6 57/12/6
f 89/1/7 80/2/7 7/14/7
f 64/16/8 19/106/8 34/17/8
f 30/19/6 1/186/6 52/20/6
f 30/19/6 60/21/6 55/22/6
f 94/30/76 85/93/76 13/31/76
f 191/33/6 139/33/6 105/34/6
f 40/35/6 127/71/6 129/36/6
f 168/38/4 66/38/4 21/39/4
f 126/40/6 123/187/6 45/41/6
f 41/46/12 23/149/12 82/47/12
f 108/49/13 7/14/13 80/2/13
f 79/51/14 122/98/14 109/52/14
f 116/54/6 110/188/6 3/55/6
f 35/57/5 162/57/5 165/58/5
f 113/59/6 116/54/6 27/56/6
f 167/53/14 20/53/14 65/61/14
f 178/2/77 169/39/77 21/39/77
f 34/17/12 19/106/12 86/62/12
f 38/64/78 62/65/78 205/65/78
f 67/7/8 73/6/8 41/46/8
f 131/25/5 69/67/5 185/67/5
f 18/70/6 125/119/6 127/71/6
f 133/33/6 191/33/6 187/34/6
f 145/72/5 147/90/5 149/73/5
f 47/77/6 113/59/6 117/78/6
f 148/80/5 144/89/5 141/81/5
f 51/79/6 117/78/6 108/49/6
f 151/87/6 152/88/6 134/88/6
f 144/89/5 148/80/5 147/90/5
f 55/22/6 18/70/6 40/35/6
f 58/92/10 26/87/10 85/93/10
f 52/20/6 13/168/6 31/94/6
f 77/29/14 64/105/14 2/96/14
f 3/97/11 110/189/11 122/98/11
f 24/87/8 33/28/8 95/28/8
f 60/21/6 31/94/6 18/70/6
f 59/43/19 93/45/19 84/34/19
f 83/100/7 89/1/7 37/15/7
f 199/75/20 198/102/20 186/102/20
f 63/91/6 40/35/6 15/37/6
f 78/8/19 59/43/19 25/99/19
f 2/103/79 64/16/79 72/18/79
f 42/84/5 182/85/5 130/85/5
f 64/105/14 77/29/14 58/92/14
f 76/84/22 120/127/22 109/52/22
f 122/98/11 110/189/11 45/109/11
f 78/8/4 67/7/4 22/66/4
f 196/75/24 103/75/24 106/102/24
f 66/38/80 168/38/80 163/111/80
f 4/112/81 107/190/81 115/113/81
f 3/97/7 79/51/7 88/69/7
f 27/115/7 88/69/7 83/100/7
f 186/102/6 106/102/6 139/33/6
f 120/116/82 43/191/82 141/117/82
f 77/29/10 70/28/10 26/87/10
f 18/70/6 31/94/6 126/40/6
f 45/109/28 123/148/28 132/120/28
f 93/45/13 57/12/13 15/37/13
f 134/88/14 136/120/14 99/93/14
f 56/121/83 61/135/83 32/122/83
f 39/124/84 62/65/84 53/9/84
f 15/37/30 129/36/30 133/33/30
f 97/107/7 98/84/7 42/84/7
f 185/67/8 69/67/8 25/99/8
f 99/93/8 68/93/8 24/87/8
f 142/74/5 149/73/5 146/4/5
f 156/67/5 161/25/5 138/25/5
f 105/34/4 139/33/4 137/125/4
f 156/67/8 101/67/8 102/99/8
f 101/67/8 185/67/8 184/99/8
f 179/100/6 181/1/6 89/1/6
f 87/63/31 86/62/31 1/128/31
f 183/120/6 136/120/6 100/110/6
f 121/50/85 92/102/85 44/86/85
f 169/130/32 173/157/32 176/131/32
f 71/107/33 193/107/33 192/107/33
f 129/36/30 44/86/30 92/102/30
f 75/133/17 48/75/17 114/76/17
f 61/135/7 204/135/7 202/136/7
f 68/93/6 99/93/6 136/120/6
f 22/66/12 41/46/12 90/48/12
f 118/137/81 111/138/81 8/111/81
f 114/76/4 21/39/4 66/38/4
f 117/78/6 37/143/6 7/14/6
f 155/85/5 150/28/5 95/28/5
f 112/139/5 10/58/5 29/114/5
f 121/50/4 80/2/4 21/39/4
f 5/13/31 81/44/31 90/48/31
f 61/135/86 54/136/86 17/142/86
f 113/59/6 9/60/6 37/143/6
f 82/47/31 87/63/31 30/129/31
f 160/75/7 103/75/7 104/133/7
f 36/140/31 90/48/31 82/47/31
f 92/102/6 186/102/6 191/33/6
f 139/33/4 106/102/4 103/75/4
f 141/146/39 43/146/39 128/147/39
f 123/148/28 13/31/28 85/93/28
f 132/120/6 183/120/6 74/110/6
f 125/119/6 47/77/6 51/79/6
f 87/63/12 82/47/12 23/149/12
f 33/28/5 70/28/5 130/85/5
f 125/119/6 126/40/6 50/42/6
f 190/68/5 185/67/5 101/67/5
f 138/25/5 104/133/5 188/133/5
f 47/77/6 50/42/6 116/54/6
f 140/151/40 14/151/40 16/151/40
f 143/117/87 46/192/87 119/152/87
f 163/111/88 162/57/88 35/57/88
f 127/71/6 51/79/6 44/86/6
f 153/107/43 152/88/43 155/85/43
f 171/153/44 173/157/44 181/154/44
f 152/88/14 151/87/14 150/28/14
f 154/84/7 98/84/7 97/107/7
f 151/87/8 96/87/8 95/28/8
f 157/99/4 158/125/4 161/25/4
f 137/125/6 158/125/6 157/99/6
f 112/139/5 118/137/5 35/57/5
f 158/125/46 160/75/46 159/133/46
f 98/84/5 135/85/5 182/85/5
f 172/164/44 171/153/44 179/155/44
f 165/165/48 170/167/48 175/166/48
f 162/156/48 176/131/48 170/167/48
f 173/157/7 171/153/7 170/167/7
f 172/164/49 167/158/49 166/162/49
f 62/65/38 39/124/38 17/142/38
f 29/114/89 164/114/89 174/112/89
f 171/153/7 172/164/7 175/166/7
f 10/58/5 165/58/5 164/114/5
f 26/87/8 70/28/8 33/28/8
f 13/168/6 123/187/6 126/40/6
f 85/93/6 68/93/6 183/120/6
f 196/75/7 197/102/7 198/102/7
f 75/133/52 188/133/52 189/75/52
f 131/25/5 190/68/5 188/133/5
f 135/85/5 95/28/5 33/28/5
f 36/11/6 11/23/6 55/22/6
f 68/93/8 85/93/8 26/87/8
f 187/34/8 184/99/8 25/99/8
f 100/110/14 136/120/14 134/88/14
f 188/133/7 104/133/7 103/75/7
f 143/151/54 111/151/54 107/151/54
f 105/34/8 102/99/8 184/99/8
f 71/107/55 42/84/55 76/84/55
f 45/41/6 110/188/6 116/54/6
f 195/110/20 100/110/20 97/107/20
f 186/102/56 198/102/56 197/102/56
f 199/75/33 189/75/33 103/75/33
f 195/110/56 194/110/56 74/110/56
f 174/169/90 166/61/90 65/61/90
f 193/107/24 71/107/24 74/110/24
f 20/53/91 167/53/91 177/51/91
f 192/107/7 193/107/7 194/110/7
f 180/69/6 179/100/6 83/100/6
f 20/53/14 109/52/14 120/127/14
f 203/173/92 201/174/92 202/136/92
f 200/64/93 205/65/93 202/136/93
f 12/175/94 38/176/94 200/176/94
f 12/175/95 201/175/95 203/177/95
f 28/173/96 203/173/96 204/135/96
f 54/136/7 202/136/7 205/65/7
f 28/173/97 61/135/97 56/121/97
