# Blender 4.4.0
# www.blender.org
mtllib BoundaryShard.mtl
o 円_cell.015_cell
v 0.923880 0.000000 0.382683
v 0.908400 0.000000 0.411644
v 0.880052 0.000000 0.323240
v 0.936038 0.000000 0.301576
v 0.948337 0.000000 0.302057
vn -0.0000 1.0000 -0.0000
vt 0.000000 0.000000
s 0
f 2/1/1 5/1/1 4/1/1
f 4/1/1 3/1/1 2/1/1
f 2/1/1 1/1/1 5/1/1
o 円_cell.015_cell.001
v 0.860802 0.000000 0.263208
v 0.879590 0.000000 0.321800
v 0.935226 0.000000 0.300099
v 0.918950 0.000000 0.233640
vn -0.0000 1.0000 -0.0000
vt 0.000000 0.000000
s 0
f 8/2/2 6/2/2 7/2/2
f 8/2/2 9/2/2 6/2/2
o 円_cell.015_cell.002
v 0.978236 0.000000 0.203493
v 0.920627 0.000000 0.232787
v 0.937018 0.000000 0.299987
v 0.948833 0.000000 0.300423
vn -0.0000 1.0000 -0.0000
vt 0.000000 0.000000
s 0
f 13/3/3 11/3/3 12/3/3
f 13/3/3 10/3/3 11/3/3
o 円_cell.014_cell
v 0.831470 0.000000 0.555570
v 0.907323 0.000000 0.413658
v 0.787742 0.000000 0.608853
v 0.658823 0.000000 0.620426
v 0.888332 0.000000 0.354484
vn -0.0000 1.0000 -0.0000
vt 0.000000 0.000000
s 0
f 14/4/4 18/4/4 17/4/4
f 17/4/4 16/4/4 14/4/4
f 14/4/4 15/4/4 18/4/4
o 円_cell.014_cell.002
v 0.514782 0.000000 0.024225
v 0.229975 0.000000 0.074910
v 0.229373 0.000000 0.658978
v 0.859060 0.000000 0.263279
v 0.887644 0.000000 0.352341
v 0.655733 0.000000 0.620703
vn -0.0000 1.0000 -0.0000
vt 0.000000 0.000000
s 0
f 22/5/5 20/5/5 24/5/5
f 24/5/5 23/5/5 22/5/5
f 22/5/5 19/5/5 20/5/5
f 20/5/5 21/5/5 24/5/5
o 円_cell.012_cell.002
v 0.555570 0.000000 0.831470
v 0.707107 0.000000 0.707107
v 0.785326 0.000000 0.611796
v 0.510036 0.000000 0.855808
v 0.439865 0.000000 0.685952
v 0.503310 0.000000 0.637368
vn -0.0000 1.0000 -0.0000
vt 0.000000 0.000000
s 0
f 25/6/6 27/6/6 29/6/6
f 29/6/6 28/6/6 25/6/6
f 25/6/6 26/6/6 27/6/6
f 27/6/6 30/6/6 29/6/6
o 円_cell.010_cell.001
v 0.228033 0.000000 0.075273
v 0.127518 0.000000 0.034650
v 0.227825 0.000000 0.247352
vn -0.0000 1.0000 -0.0000
vt 0.000000 0.000000
s 0
f 33/7/7 31/7/7 32/7/7
o 円_cell.010_cell.002
v -0.303917 0.000000 0.582545
v -0.241961 0.000000 0.105655
v -0.236078 0.000000 0.068814
v -0.225891 0.000000 0.067145
v 0.111934 0.000000 0.028352
v 0.227821 0.000000 0.250844
v 0.125155 0.000000 0.033695
v -0.265275 0.000000 0.635154
v 0.227492 0.000000 0.523051
vn -0.0000 1.0000 -0.0000
vt 0.000000 0.000000
s 0
f 36/8/8 42/8/8 40/8/8
f 38/8/8 37/8/8 36/8/8
f 36/8/8 35/8/8 34/8/8
f 34/8/8 41/8/8 42/8/8
f 42/8/8 39/8/8 40/8/8
f 40/8/8 38/8/8 36/8/8
f 36/8/8 34/8/8 42/8/8
o 円_cell.008_cell.002
v -0.930061 0.000000 -0.135772
v -0.590522 0.000000 -0.560715
v -0.380585 0.000000 -0.366915
v -0.587173 0.000000 -0.042503
vn -0.0000 1.0000 -0.0000
vt 0.000000 0.000000
s 0
f 44/9/9 46/9/9 45/9/9
f 44/9/9 43/9/9 46/9/9
o 円_cell.007_cell.002
v -0.831470 0.000000 0.555570
v -0.826571 0.000000 0.561540
v -0.883151 0.000000 0.458882
v -0.796041 0.000000 0.485487
vn -0.0000 1.0000 -0.0000
vt 0.000000 0.000000
s 0
f 47/10/10 50/10/10 49/10/10
f 47/10/10 48/10/10 50/10/10
o 円_cell.002_cell
v -0.707107 0.000000 -0.707107
v -0.831470 0.000000 -0.555570
v -0.839584 0.000000 -0.540389
v -0.558185 0.000000 -0.653788
v -0.641679 0.000000 -0.760802
vn -0.0000 1.0000 -0.0000
vt 0.000000 0.000000
s 0
f 51/11/11 53/11/11 54/11/11
f 54/11/11 55/11/11 51/11/11
f 51/11/11 52/11/11 53/11/11
o 円_cell.001_cell
v -1.000000 0.000000 -0.000000
v -0.980785 0.000000 0.195090
v -0.986318 0.000000 -0.138917
v -0.931767 0.000000 -0.134270
v -0.518176 0.000000 -0.021559
v -0.961384 0.000000 0.259049
vn -0.0000 1.0000 -0.0000
vt 0.000000 0.000000
s 0
f 56/12/12 61/12/12 59/12/12
f 59/12/12 58/12/12 56/12/12
f 56/12/12 57/12/12 61/12/12
f 61/12/12 60/12/12 59/12/12
o 円_cell.001_cell.001_cell
v -0.256656 0.000000 0.049710
v -0.238660 0.000000 0.069288
v -0.514900 0.000000 -0.020666
v -0.658064 0.000000 0.070067
v -0.619427 0.000000 0.323919
vn -0.0000 1.0000 -0.0000
vt 0.000000 0.000000
s 0
f 63/13/13 64/13/13 65/13/13
f 65/13/13 66/13/13 63/13/13
f 63/13/13 62/13/13 64/13/13
o 円_cell.001_cell.001_cell.001
v -0.947987 0.000000 0.303213
v -0.770898 0.000000 0.425213
v -0.960556 0.000000 0.261776
v -0.621422 0.000000 0.325253
v -0.659937 0.000000 0.071254
vn -0.0000 1.0000 -0.0000
vt 0.000000 0.000000
s 0
f 69/14/14 68/14/14 70/14/14
f 70/14/14 71/14/14 69/14/14
f 69/14/14 67/14/14 68/14/14
o 円_cell.002_cell.002_cell
v -0.382683 0.000000 -0.923880
v -0.381781 0.000000 -0.765332
v -0.441191 0.000000 -0.721035
v -0.510104 0.000000 -0.754460
v -0.512717 0.000000 -0.854375
v -0.350954 0.000000 -0.933504
v -0.349512 0.000000 -0.924572
vn -0.0000 1.0000 -0.0000
vt 0.000000 0.000000
s 0
f 77/15/15 76/15/15 74/15/15
f 73/15/15 78/15/15 77/15/15
f 77/15/15 72/15/15 76/15/15
f 76/15/15 75/15/15 74/15/15
f 74/15/15 73/15/15 77/15/15
o 円_cell.002_cell.002_cell.001
v -0.349148 0.000000 -0.934052
o 円_cell.002_cell.002_cell.002
v -0.555570 0.000000 -0.831470
v -0.597659 0.000000 -0.796929
v -0.514637 0.000000 -0.853349
v -0.512232 0.000000 -0.755493
vn -0.0000 1.0000 -0.0000
vt 0.000000 0.000000
s 0
f 80/16/16 83/16/16 82/16/16
f 80/16/16 81/16/16 83/16/16
o 円_cell.002_cell.001_cell.001
v -0.640066 -0.000000 -0.762125
v -0.600186 -0.000000 -0.794854
v -0.615813 -0.000000 -0.731007
v -0.539172 -0.000000 -0.765220
vn -0.0000 1.0000 -0.0000
vt 0.000000 0.000000
s 0
f 85/17/17 86/17/17 87/17/17
f 85/17/17 84/17/17 86/17/17
o 円_cell.002_cell.001_cell.002
v -0.499852 -0.000000 -0.677296
v -0.556241 -0.000000 -0.654572
v -0.443956 -0.000000 -0.718973
v -0.536726 -0.000000 -0.764031
v -0.614555 -0.000000 -0.729392
vn -0.0000 1.0000 -0.0000
vt 0.000000 0.000000
s 0
f 88/18/18 91/18/18 92/18/18
f 92/18/18 89/18/18 88/18/18
f 88/18/18 90/18/18 91/18/18
o 円_cell.007_cell_cell
v -0.884472 0.000000 0.456409
v -0.907933 0.000000 0.412518
v -0.845561 0.000000 0.381884
v -0.852997 0.000000 0.465897
vn -0.0000 1.0000 -0.0000
vt 0.000000 0.000000
s 0
f 95/19/19 93/19/19 96/19/19
f 95/19/19 94/19/19 93/19/19
o 円_cell.007_cell_cell.001
v -0.923880 0.000000 0.382683
v -0.947127 0.000000 0.306048
v -0.845575 0.000000 0.378661
v -0.909225 0.000000 0.410100
vn -0.0000 1.0000 -0.0000
vt 0.000000 0.000000
s 0
f 99/20/20 97/20/20 100/20/20
f 99/20/20 98/20/20 97/20/20
o 円_cell.007_cell_cell.002
v -0.772440 0.000000 0.426693
v -0.795174 0.000000 0.483327
v -0.851260 0.000000 0.466420
v -0.843711 0.000000 0.379653
vn -0.0000 1.0000 -0.0000
vt 0.000000 0.000000
s 0
f 101/21/21 103/21/21 102/21/21
f 101/21/21 104/21/21 103/21/21
o 円_cell.008_cell.001_cell
v -0.585515 0.000000 -0.042052
v -0.296274 0.000000 -0.208145
v -0.499538 0.000000 -0.176760
v -0.385271 0.000000 0.012416
v -0.278693 0.000000 -0.093559
vn -0.0000 1.0000 -0.0000
vt 0.000000 0.000000
s 0
f 106/22/22 105/22/22 108/22/22
f 108/22/22 109/22/22 106/22/22
f 106/22/22 107/22/22 105/22/22
o 円_cell.008_cell.001_cell.001
v -0.257084 0.000000 0.047285
v -0.383557 0.000000 0.012883
v -0.278355 0.000000 -0.091351
vn -0.0000 1.0000 -0.0000
vt 0.000000 0.000000
s 0
f 111/23/23 110/23/23 112/23/23
o 円_cell.008_cell.001_cell.002
v -0.321631 0.000000 -0.373417
v -0.378676 0.000000 -0.366124
v -0.296551 0.000000 -0.209953
v -0.498423 0.000000 -0.178506
vn -0.0000 1.0000 -0.0000
vt 0.000000 0.000000
s 0
f 115/24/24 114/24/24 116/24/24
f 115/24/24 113/24/24 114/24/24
o 円_cell.008_cell_cell.001
v -0.589294 0.000000 -0.562253
v -0.378611 0.000000 -0.368418
v -0.321936 0.000000 -0.375405
v -0.508225 0.000000 -0.663712
v -0.334862 0.000000 -0.459655
vn -0.0000 1.0000 -0.0000
vt 0.000000 0.000000
s 0
f 117/25/25 119/25/25 121/25/25
f 121/25/25 120/25/25 117/25/25
f 117/25/25 118/25/25 119/25/25
o 円_cell.008_cell_cell.002
v -0.499140 0.000000 -0.675082
v -0.381326 0.000000 -0.762499
v -0.335520 0.000000 -0.463943
v -0.507089 0.000000 -0.665134
vn -0.0000 1.0000 -0.0000
vt 0.000000 0.000000
s 0
f 124/26/26 122/26/26 125/26/26
f 124/26/26 123/26/26 122/26/26
o 円_cell.010_cell_cell
v -0.263773 -0.000000 0.637198
v 0.012079 -0.000000 0.831782
v -0.141545 -0.000000 0.609361
v -0.061431 -0.000000 0.912672
vn -0.0000 1.0000 -0.0000
vt 0.000000 0.000000
s 0
f 128/27/27 129/27/27 127/27/27
f 128/27/27 126/27/27 129/27/27
o 円_cell.010_cell_cell.001
v 0.227327 -0.000000 0.659828
v 0.227489 -0.000000 0.525315
v 0.013466 -0.000000 0.831321
v -0.139912 -0.000000 0.608989
v 0.129876 -0.000000 0.867859
vn -0.0000 1.0000 -0.0000
vt 0.000000 0.000000
s 0
f 130/28/28 133/28/28 132/28/28
f 132/28/28 134/28/28 130/28/28
f 130/28/28 131/28/28 133/28/28
o 円_cell.010_cell_cell.002
v 0.002531 -0.000000 0.999751
v 0.071263 -0.000000 0.992981
v -0.060264 -0.000000 0.914260
v 0.013651 -0.000000 0.833380
v 0.129066 -0.000000 0.869587
vn -0.0000 1.0000 -0.0000
vt 0.000000 0.000000
s 0
f 136/29/29 138/29/29 137/29/29
f 137/29/29 135/29/29 136/29/29
f 136/29/29 139/29/29 138/29/29
o 円_cell.012_cell.001_cell
v 0.228456 0.000000 0.662290
v 0.437783 0.000000 0.686394
v 0.407177 0.000000 0.646085
v 0.225442 0.000000 0.668723
v 0.471972 0.000000 0.768612
vn -0.0000 1.0000 -0.0000
vt 0.000000 0.000000
s 0
f 141/30/30 140/30/30 143/30/30
f 143/30/30 144/30/30 141/30/30
f 141/30/30 142/30/30 140/30/30
o 円_cell.012_cell.001_cell.001
v 0.382683 0.000000 0.923880
v 0.508559 0.000000 0.856598
v 0.276264 0.000000 0.956162
v 0.499616 0.000000 0.835092
vn -0.0000 1.0000 -0.0000
vt 0.000000 0.000000
s 0
f 145/31/31 148/31/31 147/31/31
f 145/31/31 146/31/31 148/31/31
o 円_cell.012_cell.001_cell.002
v 0.195090 0.000000 0.980785
v 0.073586 0.000000 0.992752
v 0.224662 0.000000 0.670386
v 0.472917 0.000000 0.770886
v 0.498981 0.000000 0.833564
v 0.268226 0.000000 0.958600
vn -0.0000 1.0000 -0.0000
vt 0.000000 0.000000
s 0
f 151/32/32 149/32/32 153/32/32
f 153/32/32 152/32/32 151/32/32
f 151/32/32 150/32/32 149/32/32
f 149/32/32 154/32/32 153/32/32
o 円_cell.012_cell_cell
v 0.438981 0.000000 0.684170
v 0.466377 0.000000 0.663270
v 0.454860 0.000000 0.643566
v 0.425578 0.000000 0.666698
vn -0.0000 1.0000 -0.0000
vt 0.000000 0.000000
s 0
f 158/33/33 156/33/33 157/33/33
f 158/33/33 155/33/33 156/33/33
o 円_cell.012_cell_cell.001
v 0.409598 0.000000 0.645865
v 0.454489 0.000000 0.641795
v 0.424573 0.000000 0.665387
vn -0.0000 1.0000 -0.0000
vt 0.000000 0.000000
s 0
f 159/34/34 161/34/34 160/34/34
o 円_cell.012_cell_cell.002
v 0.499927 0.000000 0.637675
v 0.456473 0.000000 0.642199
v 0.468033 0.000000 0.662006
vn -0.0000 1.0000 -0.0000
vt 0.000000 0.000000
s 0
f 163/35/35 164/35/35 162/35/35
o 円_cell.013_cell.002_cell
v 0.196517 0.000000 -0.412414
v 0.253637 0.000000 -0.366172
v 0.174568 0.000000 -0.296363
vn -0.0000 1.0000 -0.0000
vt 0.000000 0.000000
s 0
f 166/36/36 165/36/36 167/36/36
o 円_cell.013_cell.002_cell.001
v 0.370983 0.000000 -0.271172
v 0.173962 0.000000 -0.293155
v 0.274931 0.000000 -0.167665
v 0.159898 0.000000 -0.218796
v 0.255165 0.000000 -0.364935
vn -0.0000 1.0000 -0.0000
vt 0.000000 0.000000
s 0
f 168/37/37 169/37/37 171/37/37
f 171/37/37 170/37/37 168/37/37
f 168/37/37 172/37/37 169/37/37
o 円_cell.013_cell.002_cell.002
v 0.225041 0.000000 -0.113902
v 0.146295 0.000000 -0.146872
v 0.159471 0.000000 -0.216539
v 0.273432 0.000000 -0.166049
vn -0.0000 1.0000 -0.0000
vt 0.000000 0.000000
s 0
f 175/38/38 173/38/38 176/38/38
f 175/38/38 174/38/38 173/38/38
o 円_cell.013_cell.001_cell
v 0.260870 0.000000 0.067089
v 0.232205 0.000000 -0.080974
v 0.345482 0.000000 -0.059080
v 0.335020 0.000000 0.053917
vn -0.0000 1.0000 -0.0000
vt 0.000000 0.000000
s 0
f 177/39/39 179/39/39 178/39/39
f 177/39/39 180/39/39 179/39/39
o 円_cell.013_cell.001_cell.001
v 0.513881 0.000000 0.022144
v 0.550007 0.000000 -0.126239
v 0.347917 0.000000 -0.061417
v 0.337072 0.000000 0.053553
v 0.389738 0.000000 -0.255988
vn -0.0000 1.0000 -0.0000
vt 0.000000 0.000000
s 0
f 182/40/40 183/40/40 184/40/40
f 184/40/40 181/40/40 182/40/40
f 182/40/40 185/40/40 183/40/40
o 円_cell.013_cell.001_cell.002
v 0.372407 0.000000 -0.270019
v 0.226148 0.000000 -0.112261
v 0.388291 0.000000 -0.257159
v 0.346083 0.000000 -0.062497
v 0.231575 0.000000 -0.084228
vn -0.0000 1.0000 -0.0000
vt 0.000000 0.000000
s 0
f 187/41/41 189/41/41 188/41/41
f 188/41/41 186/41/41 187/41/41
f 187/41/41 190/41/41 189/41/41
o 円_cell.013_cell_cell
v 0.229455 0.000000 0.072670
v 0.258527 0.000000 0.067506
v 0.118353 0.000000 0.027740
v 0.250312 0.000000 0.024830
vn -0.0000 1.0000 -0.0000
vt 0.000000 0.000000
s 0
f 191/42/42 194/42/42 193/42/42
f 191/42/42 192/42/42 194/42/42
o 円_cell.013_cell_cell.001
v 0.145923 0.000000 -0.144905
v 0.224132 0.000000 -0.111173
v 0.122353 0.000000 -0.020288
v 0.234667 0.000000 -0.056447
vn -0.0000 1.0000 -0.0000
vt 0.000000 0.000000
s 0
f 196/43/43 197/43/43 198/43/43
f 196/43/43 195/43/43 197/43/43
o 円_cell.013_cell_cell.002
v 0.235019 0.000000 -0.054617
v 0.114402 0.000000 0.021750
v 0.249143 0.000000 0.018753
v 0.121881 0.000000 -0.017791
vn -0.0000 1.0000 -0.0000
vt 0.000000 0.000000
s 0
f 201/44/44 202/44/44 200/44/44
f 201/44/44 199/44/44 202/44/44
o 円_cell.017_cell
v 0.516085 0.000000 0.022666
v 0.859275 0.000000 0.261406
v 0.522554 0.000000 -0.003395
v 0.875497 0.000000 0.253223
vn -0.0000 1.0000 -0.0000
vt 0.000000 0.000000
s 0
f 205/45/45 204/45/45 206/45/45
f 205/45/45 203/45/45 204/45/45
o 円_cell.017_cell.001
v 0.980785 0.000000 0.195090
v 1.000000 0.000000 0.000000
v 0.980785 0.000000 -0.195090
v 0.553440 0.000000 -0.127818
v 0.978988 0.000000 0.201014
v 0.938756 0.000000 -0.333642
v 0.801045 0.000000 -0.385421
v 0.523148 0.000000 -0.005785
v 0.877323 0.000000 0.252301
vn -0.0000 1.0000 -0.0000
vt 0.000000 0.000000
s 0
f 211/46/46 212/46/46 210/46/46
f 214/46/46 215/46/46 211/46/46
f 211/46/46 207/46/46 208/46/46
f 208/46/46 209/46/46 212/46/46
f 212/46/46 213/46/46 210/46/46
f 210/46/46 214/46/46 211/46/46
f 211/46/46 208/46/46 212/46/46
o 円_cell.017_cell.002
v 0.923880 0.000000 -0.382683
v 0.879042 0.000000 -0.466568
v 0.938118 0.000000 -0.335744
v 0.802267 0.000000 -0.386692
vn -0.0000 1.0000 -0.0000
vt 0.000000 0.000000
s 0
f 216/47/47 219/47/47 218/47/47
f 216/47/47 217/47/47 219/47/47
o 円_cell.016_cell
v 0.552783 -0.000000 -0.130102
v 0.747314 -0.000000 -0.332296
v 0.478283 -0.000000 -0.309079
v 0.387582 -0.000000 -0.263252
vn -0.0000 1.0000 -0.0000
vt 0.000000 0.000000
s 0
f 222/48/48 220/48/48 221/48/48
f 222/48/48 223/48/48 220/48/48
o 円_cell.016_cell.001
v 0.831470 -0.000000 -0.555570
v 0.707107 -0.000000 -0.707107
v 0.555570 -0.000000 -0.831470
v 0.382683 -0.000000 -0.923880
v 0.195090 -0.000000 -0.980785
v 0.046932 -0.000000 -0.995378
v 0.878134 -0.000000 -0.468268
v 0.477668 -0.000000 -0.311129
v 0.181212 -0.000000 -0.477439
v 0.749644 -0.000000 -0.334718
vn -0.0000 1.0000 -0.0000
vt 0.000000 0.000000
s 0
f 227/49/49 231/49/49 230/49/49
f 230/49/49 224/49/49 225/49/49
f 225/49/49 226/49/49 227/49/49
f 227/49/49 228/49/49 229/49/49
f 229/49/49 232/49/49 231/49/49
f 231/49/49 233/49/49 230/49/49
f 230/49/49 225/49/49 227/49/49
f 227/49/49 229/49/49 231/49/49
o 円_cell.016_cell.002
v 0.196896 -0.000000 -0.416944
v 0.181993 -0.000000 -0.474428
v 0.474340 -0.000000 -0.309918
v 0.385645 -0.000000 -0.264814
vn -0.0000 1.0000 -0.0000
vt 0.000000 0.000000
s 0
f 234/50/50 236/50/50 235/50/50
f 234/50/50 237/50/50 236/50/50
o 円_cell.009_cell
v -0.305189 0.000000 0.584144
v -0.301933 0.000000 0.588581
v -0.312292 0.000000 0.588129
vn -0.0000 1.0000 -0.0000
vt 0.000000 0.000000
s 0
f 239/51/51 238/51/51 240/51/51
o 円_cell.009_cell.002
v -0.555570 0.000000 0.831470
v -0.382683 0.000000 0.923880
v -0.195090 0.000000 0.980785
v 0.000000 0.000000 1.000000
v -0.632908 0.000000 0.768000
v -0.300277 0.000000 0.590838
v -0.315895 0.000000 0.590150
vn -0.0000 1.0000 -0.0000
vt 0.000000 0.000000
s 0
f 241/52/52 243/52/52 246/52/52
f 247/52/52 245/52/52 241/52/52
f 241/52/52 242/52/52 243/52/52
f 243/52/52 244/52/52 246/52/52
f 246/52/52 247/52/52 241/52/52
o 円_cell.006_cell
v -0.239263 0.000000 0.071461
v -0.513455 0.000000 0.255197
v -0.402800 0.000000 0.499716
v -0.286890 0.000000 0.437568
vn -0.0000 1.0000 -0.0000
vt 0.000000 0.000000
s 0
f 251/53/53 249/53/53 250/53/53
f 251/53/53 248/53/53 249/53/53
o 円_cell.006_cell.001
v -0.707107 0.000000 0.707107
v -0.770151 0.000000 0.427210
v -0.825130 0.000000 0.563295
v -0.634696 0.000000 0.766532
v -0.514958 0.000000 0.256204
v -0.404053 0.000000 0.501609
v -0.451645 0.000000 0.663645
vn -0.0000 1.0000 -0.0000
vt 0.000000 0.000000
s 0
f 253/54/54 252/54/54 258/54/54
f 257/54/54 256/54/54 253/54/54
f 253/54/54 254/54/54 252/54/54
f 252/54/54 255/54/54 258/54/54
f 258/54/54 257/54/54 253/54/54
o 円_cell.006_cell.002
v -0.305623 0.000000 0.581570
v -0.449326 0.000000 0.662341
v -0.401965 0.000000 0.501870
v -0.287179 0.000000 0.439785
vn -0.0000 1.0000 -0.0000
vt 0.000000 0.000000
s 0
f 261/55/55 259/55/55 262/55/55
f 261/55/55 260/55/55 259/55/55
o 円_cell.003_cell.001
v -0.923880 0.000000 -0.382683
v -0.503180 0.000000 -0.673078
v -0.841516 0.000000 -0.536775
v -0.818879 0.000000 -0.278877
v -0.939788 0.000000 -0.330241
vn -0.0000 1.0000 -0.0000
vt 0.000000 0.000000
s 0
f 264/56/56 263/56/56 267/56/56
f 267/56/56 266/56/56 264/56/56
f 264/56/56 265/56/56 263/56/56
o 円_cell.003_cell.002
v -0.980785 0.000000 -0.195090
v -0.932680 0.000000 -0.136778
v -0.986122 0.000000 -0.140902
v -0.940457 0.000000 -0.328034
v -0.820178 0.000000 -0.277255
vn -0.0000 1.0000 -0.0000
vt 0.000000 0.000000
s 0
f 268/57/57 269/57/57 272/57/57
f 272/57/57 271/57/57 268/57/57
f 268/57/57 270/57/57 269/57/57
o 円_cell_cell
v 0.111532 0.000000 0.025632
v 0.195381 0.000000 -0.414253
v -0.195114 0.000000 -0.466789
v -0.076995 0.000000 0.048011
v 0.167438 0.000000 -0.522086
vn -0.0000 1.0000 -0.0000
vt 0.000000 0.000000
s 0
f 273/58/58 277/58/58 275/58/58
f 275/58/58 276/58/58 273/58/58
f 273/58/58 274/58/58 277/58/58
o 円_cell_cell.001
v 0.000000 0.000000 -1.000000
v -0.195090 0.000000 -0.980785
v -0.379954 0.000000 -0.764437
v -0.345217 0.000000 -0.935245
v 0.044738 0.000000 -0.995594
v -0.196592 0.000000 -0.468156
v 0.167036 0.000000 -0.523639
v -0.337978 0.000000 -0.491433
vn -0.0000 1.0000 -0.0000
vt 0.000000 0.000000
s 0
f 279/59/59 280/59/59 283/59/59
f 283/59/59 284/59/59 282/59/59
f 282/59/59 278/59/59 279/59/59
f 279/59/59 281/59/59 280/59/59
f 280/59/59 285/59/59 283/59/59
f 283/59/59 282/59/59 279/59/59
o 円_cell_cell.002
v -0.254931 0.000000 0.048694
v -0.236308 0.000000 0.066922
v -0.337713 0.000000 -0.489707
v -0.197101 0.000000 -0.466747
v -0.078745 0.000000 0.048219
vn -0.0000 1.0000 -0.0000
vt 0.000000 0.000000
s 0
f 288/60/60 287/60/60 290/60/60
f 290/60/60 289/60/60 288/60/60
f 288/60/60 286/60/60 287/60/60
