# Blender 4.1.1
# www.blender.org
mtllib debri.mtl
o Cube_cell
v 0.358166 -0.429708 0.534681
v -0.245462 0.427858 -0.180218
v -0.582361 0.191302 0.534681
v -0.457044 -0.429708 -0.464051
v -0.807775 -0.429708 0.534681
v 0.358166 0.437330 0.534681
v 0.358166 0.440451 0.519648
v 0.358166 -0.393488 -0.749264
v 0.358166 0.614455 -0.323059
v 0.358166 -0.429708 -0.764546
v -0.582361 0.191302 0.534681
v 0.358166 0.437330 0.534681
v 0.358166 -0.393488 -0.749264
v 0.358166 -0.429708 -0.764546
v -0.457044 -0.429708 -0.464051
v 0.358166 0.440451 0.519648
v -0.807775 -0.429708 0.534681
v 0.358166 0.614455 -0.323059
vn -0.2481 0.9485 0.1969
vn -0.3205 0.3689 -0.8725
vn -0.3216 0.3681 -0.8724
vn -0.2470 0.9490 0.1960
vn -0.0000 -1.0000 -0.0000
vn 1.0000 -0.0000 -0.0000
vn -0.0000 -0.0000 1.0000
vn -0.8926 0.3240 -0.3135
vt 1.000000 0.000000
vt 0.135476 0.011934
vt 0.141988 0.000000
vt 1.000000 1.000000
vt 0.141677 0.141677
vt 1.000000 0.141977
vt 0.141977 0.141977
vt 1.000000 0.104662
vt 0.141988 0.141988
vt 1.000000 0.141677
vt 0.625000 0.500000
vt 0.675951 0.562421
vt 0.625000 0.581202
vt 0.559740 0.553609
vt 0.570615 0.500940
vt 0.586187 0.441217
vt 0.625000 0.427129
vt 0.895338 0.000000
vt 0.122356 0.000000
vt 0.000000 0.000000
vt 1.000000 0.877644
vt 0.132467 0.104155
vt 0.697871 0.500000
vt 0.570810 0.500000
vt 0.622736 0.580247
vt 0.894838 0.881624
s 0
usemtl Material
f 2/1/1 12/2/1 16/3/1
f 2/4/2 18/5/2 13/6/2
f 13/7/3 15/8/3 2/4/3
f 2/4/4 16/9/4 18/10/4
f 1/11/5 4/12/5 10/13/5
f 9/14/6 7/15/6 1/11/6
f 1/11/7 3/16/7 17/17/7
f 15/18/8 11/19/8 2/20/8
f 2/1/1 11/21/1 12/2/1
f 13/7/3 14/22/3 15/8/3
f 1/11/5 17/23/5 4/12/5
f 7/15/6 6/24/6 1/11/6
f 1/11/6 10/13/6 8/25/6
f 8/25/6 9/14/6 1/11/6
f 1/11/7 6/24/7 3/16/7
f 15/18/8 5/26/8 11/19/8
