# Blender 4.1.1
# www.blender.org
mtllib BackWingRight.mtl
o BackWingRight
v -2.001415 -0.011136 -0.137690
v -0.001415 -0.011136 -0.137690
v -2.001415 0.111353 -0.141114
v -0.001415 0.111353 -0.141114
v -2.001415 0.142649 0.978449
v -2.001415 0.020160 0.981873
v -0.001415 -0.003312 0.142201
v -0.001415 0.119177 0.138777
vn -0.0000 0.9996 -0.0279
vn 0.3872 0.0258 0.9216
vn -0.0000 -0.9996 0.0279
vn 1.0000 -0.0000 -0.0000
vn -1.0000 -0.0000 -0.0000
vn -0.0000 -0.0279 -0.9996
vt 0.562500 0.750000
vt 0.562500 0.687500
vt 0.500000 0.687500
vt 0.500000 0.750000
s 0
usemtl マテリアル.002
f 3/1/1 8/2/1 4/2/1
f 5/1/2 7/3/2 8/2/2
f 7/3/3 1/4/3 2/3/3
f 8/2/4 2/3/4 4/2/4
f 6/4/5 3/1/5 1/4/5
f 3/1/6 2/3/6 1/4/6
f 3/1/1 5/1/1 8/2/1
f 5/1/2 6/4/2 7/3/2
f 7/3/3 6/4/3 1/4/3
f 8/2/4 7/3/4 2/3/4
f 6/4/5 5/1/5 3/1/5
f 3/1/6 4/2/6 2/3/6
